<?xml version="1.0" encoding="utf-8"?>
<!-- Generator: Adobe Adobe Illustrator 24.2.0, SVG Export Plug-In . SVG Version: 6.00 Build 0)  -->
<svg aria-hidden="true" version="1.1" id="Layer_1" xmlns="http://www.w3.org/2000/svg" xmlns:xlink="http://www.w3.org/1999/xlink" x="0px" y="0px"
	 viewBox="0 0 373.9 534.7" style="enable-background:new 0 0 373.9 534.7;" xml:space="preserve">
<style type="text/css">
	.st0{fill:#F7EFDE;}
</style>
<path class="st0" d="M242.9,211.6c4.8,4.5,8.5,10,10.9,16.1c4.5,11.3,4.9,23.7,2.8,35.6c-2.1,12.2-6.5,23.9-10.9,35.4
	c-0.4,1.1-2.3,0.9-2.3-0.3c-0.4-7.3-1.6-14.5-3.7-21.5c-3.5-12.4-8.4-24.6-10.2-37.4c-1.4-10.2-0.8-22.6,7.9-29.4
	c0.2-0.2,0.5-0.3,0.8-0.3c-0.9-4.4-2-8.7-3.2-13c-4.5-15.5-11-30.3-19.3-44.1c-0.2-0.3-0.2-0.7-0.1-1c-13-5.9-26.1-11.5-39.1-17.2
	c-25.8-11.3-52.5-24.1-71.5-45.4c24,40.8,38.8,86.4,45.2,133.3c0.6-0.1,1.1,0.1,1.3,0.7c3,6.9,7.5,12.9,12.5,18.5
	c4.4,4.9,9.2,9.5,13.6,14.4c4.6,5.1,9,10.6,13.2,16.1c7.8,10.2,13.9,21.7,18,33.9c0.4,0,0.8,0.3,0.9,0.7c0,0.1,0.1,0.2,0.1,0.3
	c6.5-2.8,14.1,0.3,19.5,4.3c5.4,4,9.5,9.5,11.7,15.8c2.3,6.6,2.4,13.7,1.4,20.6c-2.1,14.3-9,27.6-9.2,42.1c0,1.2-1.5,1.3-2.2,0.6
	c-5.4-5.7-12.6-9.1-19.4-12.7c-6.1-3.2-12.1-6.7-16.7-11.8c-5.4-6-8.4-13.8-8.5-21.9c0-4,0.6-8,1.7-11.9c1-3.8,2.4-7.5,4.1-11
	c3.1-5.9,8.2-11.2,14.7-13c-2.2-7.1-5.1-13.9-8.8-20.3c-3.3-5.8-7.1-11.4-11.3-16.7c-4.2-5.5-8.6-10.8-13.4-15.9
	c-8.2-8.8-17.2-17.1-22.8-27.9c0.3,2.7,0.6,5.4,0.9,8.1c3.1,30.4,2.2,60.7,1.4,91.2c-0.2,9.4-0.4,18.8-0.6,28.2
	c0.1,0.1,0.2,0.2,0.2,0.4c1.5,3.8,3.1,7.7,5,11.4c1.6,3.3,3.5,6.3,5.8,9.1c2.4,2.8,5.1,5.2,8,7.4c6.2,4.7,12.5,9.4,18.7,14.1
	c0.4-0.5,1.1-0.6,1.6-0.3l0.1,0c8-3.5,16.7-4.9,25.4-4c16.6,1.7,31.3,11.5,39.3,26.2c4.4,8.1,5.8,17.1,7.3,26.1
	c1.5,9.8,4.5,19.3,8.9,28.3c0.6,1.2-0.9,2-1.9,1.4c-8.3-4.8-17.8-6.6-26.9-9.5c-29.7-9.5-51.3-35.1-55.6-66c0-0.2,0-0.4,0.1-0.6
	l-10.6-8c-6.1-4.6-12.8-8.9-17.4-15.1c-3.3-4.7-6.1-9.7-8.2-15c-0.2,19.1,0,38.2,1,57.3c0.3,0,0.6,0.2,0.8,0.4
	c5.6,7.2,9.9,15.4,12.5,24.2c4.6,15.7,3.9,32.9-4.1,47.4c-4.6,8.4-11.1,15.4-17.7,22.3c-7.4,7.6-15,15.1-22.7,22.3
	c-0.5,0.4-1.3,0.3-1.7-0.2c0,0,0,0,0,0c-5.2-7.8-8.6-16.7-10-26c-2.5-16.8,1-33.8,8.4-49c7.5-15.3,18.5-28.6,30.7-40.4
	c-1.8-33.3-1-66.7-0.2-100c0.2-8.6,0.4-17.2,0.5-25.8c-0.5,1.6-0.9,3.2-1.4,4.8c-0.8,2.4-1.7,4.7-2.9,6.9c-1.3,2.4-2.8,4.7-4.3,7
	c-5.5,8.4-11.4,16.5-17.3,24.7c-5.6,7.7-11.1,15.7-15.3,24.3c-2.1,4.3-3.6,8.9-5.3,13.4c-0.9,2.4-1.9,4.8-2.9,7.1
	c-0.3,0.8-0.7,1.6-1.1,2.3c0.1,0.3,0,0.6-0.2,0.9c-0.6,1-1.2,1.9-1.8,2.8c0.4,7-0.3,14-2.3,20.8C91.3,421,83.6,432.6,73.8,442
	c-11.3,10.9-25.2,18.7-39.6,24.7c-0.6,0.3-1.4-0.1-1.6-0.7c-0.1-0.2-0.1-0.4-0.1-0.6c0.4-9.1,1.2-18.1,2.6-27
	c2.4-14.5,7.6-28.9,18-39.6c5.4-5.5,12.1-9.6,19.4-12c7.8-2.5,16-3.8,24.2-4c0-0.1,0.1-0.1,0.1-0.2c0.1-0.1,0.1-0.2,0.2-0.3
	c0.1-0.2,0.2-0.3,0.2-0.3c0.1-0.2,0.2-0.3,0.3-0.5c0.5-1,1-2.1,1.4-3.2c1.2-2.8,2.3-5.7,3.4-8.5c1.8-5,3.9-9.8,6.3-14.5
	c4.6-8.1,9.8-15.9,15.5-23.4c1-1.4,2.1-2.8,3.1-4.2c-2.4,1.8-4.9,3.4-7.5,5c-3.9,2.2-7.8,4.2-11.9,6c-4.2,1.8-8.5,3.2-12.6,5
	c-7.3,3.3-14,7.6-20.2,12.7c0,0,0,0.1,0.1,0.1c3.6,5.5,2.9,12.3,0.1,18c-5.9,11.9-19.1,18.2-31.2,22c-14,4.4-28.9,6-42.2,12.5
	c-0.6,0.2-1.3-0.1-1.6-0.7c-0.2-0.4-0.1-0.8,0.1-1.2c2.7-3.3,4.3-7.3,5.6-11.3c1.3-4.1,2.5-8.3,3.8-12.3
	c4.8-14.3,12.3-28.7,26.5-35.5c6.5-3.2,14-4,21.1-2.1c5.9,1.7,11.3,4.8,15.8,9c3.4-2.8,6.9-5.4,10.6-7.8c3.6-2.3,7.5-4.3,11.4-6
	c4.2-1.8,8.5-3.2,12.6-5c8.2-3.6,16-8,22.7-14.1c0.3-0.3,0.7-0.4,1.1-0.2c3.4-4.8,6.6-9.6,9.8-14.5c2.4-3.7,4.2-7.8,5.5-12
	c1.1-3.6,2-7.1,3.2-10.7c0.1-18.8-0.8-37.6-3-56.3c-3.4-28.8-10.1-57.1-20.1-84.3c-1.6-4.3-3.3-8.6-5.1-12.9
	c0.9,7.9,0.5,16-1.1,23.8c-1.9,10.1-5.1,19.8-8.4,29.5c-1.5,4.5-3.1,9-4.5,13.6c-1.4,4.7-2.8,9.4-4.4,14
	c-6.5,18.5-15.3,37.4-13.6,57.4c0.3,0.1,0.6,0.3,0.6,0.7c0.3-0.1,0.7,0,0.9,0.2c4.6,3.2,8.8,7,12.4,11.4c3.1,3.8,5.4,8.3,6.6,13.1
	c1.1,4.5,1.3,9.2,0.7,13.8c-1.2,10.1-5.8,19.4-10.2,28.4c-0.3,0.6-1,0.9-1.6,0.6c-0.1,0-0.2-0.1-0.2-0.1
	c-5.8-4.8-11.1-10.1-16.1-15.7c-7.9-9.3-14.3-21.3-12.9-33.9c0.5-5.2,2.6-10,6.1-13.9c2.8-2.9,7.3-5.3,11.4-4.4
	c-0.9-10.7,1.2-21.4,4.3-31.7c3-9.8,6.9-19.3,10.2-28.9c1.5-4.5,2.8-9.1,4.2-13.6c1.5-4.7,3.1-9.4,4.6-14c3.2-9.7,6.4-19.5,8-29.6
	c1.6-9.6,1.8-19.5-1.2-28.8c-0.1-0.4-0.1-0.8,0.2-1.2c-8.2-17.9-18-35-29.2-51.1c-0.4-0.5-0.8-1-1.2-1.5C87.1,69,87,68.8,87,68.6
	c-17.1-24.1-37-45.9-59.5-65c-1.9-1.6,0.4-4.7,2.3-3.1c25,21.2,47,45.7,65.3,72.8c0.4-0.1,0.8,0.1,1.1,0.4c2.7,2.7,5.5,5.5,7.9,8.4
	c0.1,0.1,0.1,0.1,0.1,0.2c0.2,0.1,0.3,0.2,0.4,0.4c11.1,13.8,25.6,24.1,41,32.6c13.6,7.5,27.8,13.7,42,19.8
	c13.9,6,27.7,12.3,41.4,18.8c29,13.6,59.3,28,81.1,52.1c8.5-0.7,17,1.5,24.5,5.3c7.4,3.7,14.1,8.9,20.4,14.3
	c6.3,5.5,11.9,11.9,14.1,20.2c2.1,8.2,1,16.7,0.5,25c-0.6,8.4-0.6,17.7,4.1,25.1c0.8,1.3-1.1,2.8-1.9,1.5
	c-4.4-7.2-11.2-12.2-18.2-16.6c-6.4-4-13.2-7.5-19.3-12c-6.3-4.6-11.8-10.2-16.1-16.7c-8.6-12.9-12.5-28.4-11.1-43.9
	c-12.8-14-28.8-24.7-45.3-33.8c-14-7.7-28.4-14.7-43-21.4c2,3.4,3.9,6.8,5.7,10.3c7.5,14.7,13,30.3,16.3,46.4c0,0,0,0,0,0.1"/>
</svg>
