<?xml version="1.0" encoding="utf-8"?>
<!-- Generator: Adobe Adobe Illustrator 24.2.0, SVG Export Plug-In . SVG Version: 6.00 Build 0)  -->
<svg version="1.1" id="Layer_1" xmlns="http://www.w3.org/2000/svg" xmlns:xlink="http://www.w3.org/1999/xlink" x="0px" y="0px"
	 viewBox="0 0 443.6 585.6" style="enable-background:new 0 0 443.6 585.6;" xml:space="preserve">
<style type="text/css">
	.st0{fill:#F7EFDE;}
</style>
<path class="st0" d="M81.7,340.5c-0.5,7.4,0.5,14.9,3.1,21.9c4.8,12.9,13.8,23.8,24.3,32.2c10.9,8.8,23.2,15.3,35.4,21.8
	c1.2,0.6,2.5-0.9,1.7-2c-5.1-6.5-9.5-13.6-13.1-21c-6.4-13.2-11.5-27.1-19.7-39.3c-6.4-9.7-16.2-19.7-28.5-18.9
	c-0.3,0-0.6,0.2-0.9,0.4c-2.5-4.4-4.9-8.9-7.1-13.4c-7.9-16.5-13.7-33.9-17.1-51.8c-0.1-0.4-0.3-0.8-0.7-0.9
	c6.2-14.8,12.7-29.4,19.1-44c12.6-28.9,24.8-59.8,24.4-92.1c11,52.4,33,102.1,62.9,146.6c-0.6,0.3-0.8,1-0.5,1.6
	c2.8,8.1,3.6,16.5,3.6,25.1c0,7.4-0.4,14.9-0.4,22.4c0,7.9,0.5,15.7,1.3,23.5c1.3,14.6,4.9,28.8,10.6,42.3c-0.3,0.3-0.3,0.8-0.2,1.3
	c0.1,0.1,0.1,0.3,0.2,0.4c-7.4,2.5-11.3,10.9-12.7,18.4c-1.4,7.4-0.6,15.2,2.3,22.2c3.1,7.4,8.3,13.4,14.2,18.5
	c12.4,10.5,27.9,16.7,39,28.8c0.9,1,2.2-0.1,2.2-1.2c0.1-8.9,3.5-17.1,6.3-25.4c2.5-7.3,4.9-14.7,4.8-22.5c-0.1-9.2-3.4-18-9.4-25
	c-3.1-3.4-6.5-6.3-10.4-8.8c-3.6-2.5-7.5-4.6-11.6-6.2c-7-2.7-15-3.4-21.7,0c-3.5-7.7-6.2-15.7-8.1-23.9c-1.6-7.5-2.8-15-3.3-22.6
	c-0.6-7.8-1.1-15.7-1-23.5c0.1-13.6,1.3-27.4-2.2-40.7c1.8,2.6,3.5,5.1,5.4,7.6c20.1,28.1,43.6,53.1,67,78.3
	c7.2,7.8,14.4,15.5,21.6,23.5c0.1,0.1,0.1,0.4,0.1,0.5c1.6,4.4,3.2,8.9,4.4,13.3c1.1,3.9,1.8,8,2.1,12.1c0.2,4.2-0.2,8.2-1,12.2
	c-1.6,8.6-3.1,17.3-4.7,26c-0.7-0.2-1.4,0.3-1.6,1l0,0.1c-9.1,3.1-17.3,8.4-23.8,15.6c-12.4,13.8-16.8,33.4-12.5,51.7
	c2.5,10.2,8.1,18.9,13.6,27.6c6.1,9.5,10.8,19.8,13.9,30.7c0.4,1.4,2.2,1,2.5-0.2c3.2-10.3,9.6-19,14.8-28.2
	c8.5-15,12.6-32,11.8-49.2c-0.7-17.3-6.1-34.1-15.8-48.4c-0.1-0.2-0.3-0.3-0.5-0.4l2.7-14.7c1.5-8.5,3.8-17.1,2.9-25.9
	c-0.7-6.4-2.3-12.8-4.6-18.9c14.4,16.1,28.7,32.4,42.1,49.4c-0.2,0.2-0.4,0.6-0.3,1c0.8,10.3,3.5,20.5,7.9,29.8
	c7.9,16.8,21.4,30.9,38.8,37c10,3.6,20.6,4.8,31.1,5.5c11.7,0.9,23.4,1.5,35.3,1.8c0.8,0,1.2-0.7,1.2-1.4l0,0
	c-1.6-10.6-5.5-20.6-11.4-29.5c-10.4-16.1-26.1-27.9-43.5-35.2c-17.5-7.3-36.5-10.3-55.2-11.2c-23.4-29.5-49-57.2-74.7-84.8
	c-6.6-7.1-13.2-14.3-19.7-21.5c1.6,1,3.2,2,4.7,3c2.4,1.4,5,2.7,7.6,3.7c2.9,1.1,5.8,1.9,8.7,2.7c10.8,3,21.7,5.4,32.6,7.9
	c10.4,2.4,20.8,4.9,30.6,9.1c4.9,2.1,9.6,4.8,14.3,7.4c2.6,1.4,5.1,2.6,7.7,3.9c0.9,0.5,1.7,0.8,2.7,1.2c0.2,0.3,0.4,0.5,0.7,0.6
	c1.2,0.4,2.3,0.7,3.6,1c4.8,6.3,10.7,11.7,17.4,15.9c12.8,8.3,27.8,12.3,42.8,13c17.4,0.8,34.6-3.1,50.8-8.8
	c0.7-0.2,1.1-1.1,0.7-1.9c0-0.2-0.2-0.4-0.4-0.5c-7.2-7.2-14.4-14.6-22.3-21c-12.8-10.5-27.8-18.8-44.3-20.1c-8.5-0.5-17,1-24.9,4.4
	c-8.4,3.6-15.8,8.9-22.8,14.7c-0.1,0-0.2-0.1-0.2,0c-0.1,0-0.2-0.1-0.4-0.1c-0.3-0.1-0.3-0.1-0.4-0.1c-0.2-0.1-0.4-0.1-0.6-0.2
	c-1.2-0.5-2.4-1.1-3.5-1.6c-3.1-1.5-6.1-3.1-9.2-4.7c-5.2-2.9-10.5-5.4-16-7.6c-9.8-3.5-20-5.9-30.1-8.2c-1.9-0.4-3.7-0.9-5.6-1.3
	c3.3-0.3,6.6-0.8,9.8-1.4c4.8-1,9.6-2.3,14.2-3.9c4.8-1.6,9.4-3.7,14.1-5.2c8.4-2.9,17.1-3.9,25.9-4.4c0,0,0,0.1,0.1,0.1
	c1.1,7.4,6.9,12.6,13.4,15.3c13.7,5.6,29.2,1.1,41.9-4.7c14.7-6.8,28.1-16.6,43.8-21.1c0.7-0.2,1.1-1.1,0.7-1.9
	c-0.2-0.4-0.6-0.8-1-0.8c-4.7-0.7-8.9-3-13-5.4c-4.2-2.5-8.2-5.1-12.4-7.6c-14.6-8.5-31.4-15.1-48.2-10.2c-7.8,2.1-14.5,7.2-18.7,14
	c-3.6,5.9-5.6,12.6-6.2,19.5c-4.8,0.2-9.6,0.6-14.5,1.4c-4.7,0.8-9.3,2-13.8,3.5c-4.8,1.6-9.4,3.7-14.1,5.2
	c-9.4,3.1-19.1,5.2-29,5.1c-0.4-0.1-0.8,0.2-1.1,0.6c-6.3-1.5-12.6-3.2-18.8-4.9c-4.7-1.4-9.3-3.4-13.4-6.1c-3.5-2.2-7-4.6-10.6-6.6
	c-14.2-15.9-27.5-32.6-39.7-49.9c-18.8-27-34.4-56-46.6-86.5c-1.9-4.9-3.7-9.8-5.5-14.7c5.2,7.4,11.4,13.9,18.7,19.3
	c9.1,7.1,18.9,12.9,28.9,18.7c4.6,2.7,9.3,5.4,13.8,8.2c4.7,2.9,9.3,5.8,14,8.6c19,10.8,40.5,20.2,54,38.4c-0.2,0.3-0.2,0.7,0,1.1
	c-0.3,0.2-0.5,0.5-0.6,0.9c-1.4,6.2-1.9,12.6-1.5,18.9c0.3,5.6,1.8,11.1,4.4,16c2.5,4.7,5.8,8.8,9.8,12.3
	c8.6,7.7,19.2,12.1,29.6,16.4c0.6,0.4,1.5,0.1,1.7-0.6c0-0.1,0.1-0.2,0.1-0.4c0.9-8.4,1.7-16.9,1.4-25.4
	c-0.5-13.8-4.3-28.8-14.8-38.4c-4.3-3.9-9.6-6.7-15.3-7.2c-4.5-0.3-9.9,1-12.5,4.9c-7.3-9.7-17-17.2-27.2-23.6
	c-9.7-6.1-20-11.1-30-16.9c-4.7-2.6-9.1-5.6-13.5-8.4c-4.7-2.9-9.5-5.6-14.3-8.4c-9.8-5.8-19.7-11.7-28.7-19
	c-8.4-6.9-16.1-15.1-20.6-25.4c-0.2-0.4-0.6-0.8-1.1-0.9c-6.8-21.6-11.6-43.5-14.5-65.6c0-0.8-0.1-1.4-0.2-2.2
	c0-0.2-0.1-0.5-0.2-0.6c-4.1-33-4.2-66.6-0.2-99.7c0.4-2.8-3.9-3.7-4.2-1c-4.6,36.8-4.2,74,1.1,110.7c-0.4,0.3-0.6,0.7-0.6,1.2
	c-0.1,4.4-0.4,8.7-0.2,13.1c0,0.1,0,0.2,0,0.3c-0.1,0.2-0.1,0.4,0,0.6c1.2,20-2.8,39.6-9,58.4c-5.5,16.5-12.4,32.4-19.5,48.3
	c-6.9,15.5-13.3,31.2-19.7,46.9c-13.4,33.3-27.4,68.2-27.2,105c-7.4,5.8-12.7,14-16,22.9c-3.3,8.8-5,18.2-5.9,27.5
	c-1,9.4-0.9,19,3.6,27.7c4.4,8.4,11.6,15,18.3,21.5c6.8,6.7,13.8,14.5,15.4,24.3c0.3,1.7,3,1.6,2.6-0.1c-1.7-9.4,0-18.8,2.5-27.8
	c2.3-8.3,5.1-16.3,6.8-24.6c1.8-8.7,2-17.5,0.7-26.3c-2.6-17.4-11-33.4-23.8-45.5c-0.1-21.5,5-42.5,11.7-62.6
	c5.7-17,12.2-33.8,19.2-50.4c0.9,4.4,1.9,8.7,3.1,13c4.9,18,12,35.4,21.3,51.5l0,0"/>
</svg>
