<?xml version="1.0" encoding="utf-8"?>
<!-- Generator: Adobe Adobe Illustrator 24.2.0, SVG Export Plug-In . SVG Version: 6.00 Build 0)  -->
<svg version="1.1" id="Layer_1" xmlns="http://www.w3.org/2000/svg" xmlns:xlink="http://www.w3.org/1999/xlink" x="0px" y="0px"
	 viewBox="0 0 480.9 184" style="enable-background:new 0 0 480.9 184;" xml:space="preserve">
<style type="text/css">
	.st0{fill:#F7EFDE;}
</style>
<path class="st0" d="M480.6,56.6c-6.6-3.4-13.2-6.5-20.2-9.1c-11.8-4.2-25.2-5.7-36.9-0.4c-5.7,2.7-10.6,6.9-13.9,12.4
	c-3.3,5.2-6.5,11-6.7,17.3c0,0.1,0,0.1,0,0.1c-8.4,4.8-17.1,8.8-26.2,12.3c-17.6,6.7-36.2,10.7-55,12c-16.8,1.2-33.7,0.2-50.2-3.1
	c3-0.7,5.9-1.5,8.7-2.5c13.5-4.6,25.8-12.2,36.2-22c0.1,0,0.1,0,0.2,0c0.1,0.1,0.1,0.2,0.3,0.3c2.5,1.5,5.3,2.2,8.3,2
	c3.1-0.1,6.2-0.6,9.3-1.3c11.3-2.9,21.3-9.7,28.9-18.5c7.2-8.3,12.3-18.1,15.7-28.4c0.1-0.6-0.1-1.2-0.7-1.4c-0.1,0-0.2,0-0.2,0
	c-6.9-0.1-13.9,0.6-20.6,2.1c-6.1,1.3-12,3.2-17.7,5.8c-2.8,1.2-5.6,2.8-8,4.7c-2.4,1.9-4.6,4.1-6.5,6.5c-1.9,2.3-3.6,4.9-5.3,7.4
	c-1.3,2-2.6,4.2-3.6,6.5c-1.8,4-2.8,8.6-1.3,12.8c-12.9,12.4-29,21-46.5,24.8c-0.2-0.1-0.5-0.2-0.8-0.2c-34.7-3-69-10.4-101.9-22
	c2.7-2.5,5.5-4.9,8.4-7.3c12-9.3,25.6-16.5,40-21.1c-0.3,0.3-0.2,1,0.1,1.3c5,5.4,11.5,9.3,18.4,11.5c13.2,4.2,27.5,2.9,40.3-1.9
	c16.7-6.3,30.8-17.5,44.5-28.6c0.4-0.4,0.5-1.1,0.1-1.5C301.2,5.6,272.8-2.3,247.5,7.1c-16.3,6.5-29.2,19.6-35.5,36
	c-0.2,0.5,0,1,0.4,1.2c-3.2,1.1-6.3,2.2-9.4,3.5c-14.7,6.1-28,14.8-39.5,25.7c-0.6-0.1-1.1-0.4-1.6-0.5c-61.2-21.8-118-56-168.4-97
	c-9.1-7.4-17.8-15.1-26.2-23.1c3.7,1.4,7.2,2.8,11,3.9c8.7,2.6,17.8,4.3,26.9,5c8.3,0.7,16.6,0.8,25,0.9c0.3,0.9,1.1,3.9,1.4,4.9
	c3.2,9,9.6,16.4,17.4,21.8C57.1-5,66.6-1.9,76.3-1.2C86.7-0.7,97-2.4,106.8-6.2C117.2-10,127-15.8,136-22.4
	c9.7-7.1,18.6-15.3,27.4-23.3c0.7-0.6,0.4-1.9-0.6-1.9c-1.2,0-2.5,0-3.7-0.1c-10.2-0.8-19.2-6.6-27.6-12.1
	c-8.5-5.5-17.1-11.1-27.1-13.5c-9.5-2.3-19.4-2.5-29-0.5c-9.6,2-18.7,6-26.6,11.6S34.3-49.2,30-40.5c-0.2,0.4-0.2,0.8,0,1.1
	c-4,0-8-0.1-12.1-0.2c-9.2-0.2-18.5-1.1-27.7-2.8c-8.7-1.8-17.2-4.5-25.3-8.1c-0.3-0.2-0.7-0.2-0.9,0.1c-13.9-13.5-26.6-28-38-43.5
	l-2.4-3.3c-1.3-2-2.8-3.9-4.2-5.9c-18.7-27.6-35.3-58-63.4-77.3c-0.8-0.5-1.9-0.3-2.4,0.5s-0.3,1.8,0.5,2.3
	c30.8,21.1,47.4,55.4,68.6,85.1c3.7,21.3,5.6,42.8,5.8,64.4c0.1,22.9-1.6,45.9-5.3,68.5C-79.6,46.7-82.6,53-86,59
	c-7.2,12.7-16,24.6-27.4,33.9c-2.6,2.1-5.4,4.1-8.3,5.9c-0.4,0.1-0.8,0.2-1.2,0.3c-1.1,0.3-2.2,0.6-3.4,0.8
	c-2.2,0.5-4.4,0.8-6.7,1.2c-4.6,0.7-9.1,1.6-13.5,2.8c-13.2,4.2-24.2,13.5-30.3,26c-1.5,3-2.6,6.3-3.5,9.6c-0.7,3.2-1.2,6.5-1.6,9.7
	c-0.9,6.4-2,13-6.2,18.2c-0.3,0.5-0.2,1.2,0.3,1.5c0.2,0.1,0.3,0.2,0.5,0.1c3.8,0.2,7.1-1.8,10.2-3.6c3.3-1.9,6.4-3.7,9.4-5.8
	c11.1-7.6,21-16.7,29.2-27.2c4.1-5.2,7.9-10.8,11.2-16.5c3.5-6,6.5-12.4,10.8-17.9c0-0.1,0.1-0.2,0.2-0.3c9.5-7,17.8-15.5,24.4-25.3
	c5.1-7.6,9.7-15.5,13.6-23.8c-2.5,13.9-5.9,27.7-9.9,41.3c-5.9,19.8-12.8,39.9-23.4,57.7c-9.9,16.8-25.1,29.7-34,47.1
	c-0.3,0.4-0.4,0.9-0.6,1.4c-1.2,3.7-3.3,6.5-5.6,9.5c-2,2.7-4.2,5.3-6.6,7.8c-2.7,2.8-5.3,5.8-8.1,8.6c-1.6,1.7-3.2,3.2-4.8,4.9
	c-2.8,1.2-5.6,2.4-8.3,3.6c-3,1.3-6,2.5-8.9,3.9c-4,1.9-7.3,4.8-9.7,8.5c-2,3.2-3.5,6.7-4.6,10.3c-2.4,7-4.3,14.9-9.9,20.2
	c-0.4,0.4-0.5,1.1-0.1,1.5c0.2,0.1,0.4,0.3,0.6,0.4c4.8,0.1,9.7-1.5,13.6-4.3c3.7-2.7,6.8-5.8,9.5-9.4c2.9-3.7,5.6-7.5,8.3-11.4
	c5.2-7.8,9.8-15.8,13.9-24.1c0.1-0.2,0.1-0.5,0.1-0.7c3.8-3.8,7.3-7.7,10.9-11.7c3.6-3.9,7-8,9.3-12.8c-0.5,3.1-0.9,6.3-1.1,9.4
	c-0.7,8.3-0.5,16.6,0.5,24.9c-0.3,0.3-0.2,0.9,0,1.2c0.1,0.1,0.1,0.1,0.1,0.2c-0.5-0.1-1.1,0.1-1.2,0.6c0,0.1,0,0.2-0.1,0.3
	c-0.3,8.6-3.2,16.8-4,25.4c-2.1,26.3,12.8,51,37,61.8c0.6,0.1,1.2-0.1,1.4-0.7c0-0.2,0.1-0.3,0-0.5c-0.7-7.8-1.3-15.6-2-23.4
	c-0.6-6.9-1.1-13.8-1.7-20.7c-0.6-6.5-1.5-13-4.3-18.9c-1.2-2.9-2.9-5.6-5-8c-2-2-3.9-4-6.2-5.7c-4.2-3.3-8.7-6.5-11.9-10.9
	c-1.4-12.5-1-25.1,1.2-37.6c0.2-0.3,0.2-0.6,0.4-0.9c5.2-10.6,13.2-19.5,20.7-28.6c7.3-9,13.7-18.6,18.9-29c0.8-1.6,1.5-3.2,2.4-4.9
	c0.3,3.5,0.5,6.8,1.1,10.3c1.3,8.6,3.4,17.1,6.5,25.3c-0.5,0.3-0.7,0.8-0.6,1.4c-0.2,0.1-0.4,0.3-0.5,0.6
	c-12.9,40.2,9.3,83.4,49.5,96.3c2.3,0.7,4.7,1.4,7,1.9c0.6,0.1,1.2-0.1,1.3-0.8c0.1-0.3,0-0.5,0-0.7c-3.3-9.1-5.9-18.3-7.8-27.8
	c-1.7-8.4-2.6-16.8-4.1-25.2c-1.4-8-3.5-16-7.4-23.1c-3.7-6.7-9.2-12.1-15.9-15.6c-6.1-3.2-12.6-5.1-19.2-6.8
	c-4.8-12.8-7.5-26.3-8-40c7-15.9,12.4-32.5,16.9-49.3c5.2-19,8.9-38.4,11.3-57.9c1.5-12.7,2.5-25.5,2.8-38.3
	c0.4,2.2,0.8,4.3,1.2,6.4c3.3,15.8,8.8,30.9,16.6,45c0.8,1.6,1.8,3.1,2.7,4.7c-0.4,0.1-0.8,0.4-0.9,0.9c-2.3,24.3,8.4,48,28,62.5
	c11.6,8.4,25.5,13,39.9,13.3c0.6,0.1,1.1-0.4,1.2-1c0-0.2,0-0.3-0.1-0.5l-9.9-25.9C7.4,83.2,4.5,75.6,1.6,68
	c-1.4-3.7-2.8-7.4-4.3-11.1c-1.3-3.4-3-6.8-5.2-9.7c-4.2-5.3-10.7-7.7-17.3-8.4c-6.9-0.7-13.9,0.1-20.5,2.3
	c-5.6-9.3-10.2-19.1-13.8-29.4c-5.3-15-8.3-30.7-8.8-46.6c0-0.2-0.1-0.4-0.2-0.6c-0.4-17-2-33.9-4.6-50.8
	c21.7,28.7,48.5,53.1,76.8,75c5.2,4,10.4,7.9,15.7,11.7c2.7,6,5.6,11.7,8.6,17.5c5.9,11,12.2,21.6,19.3,32c6,8.6,12.2,17,18.9,25.1
	c-0.6,0.8-2.5,3.1-3,3.9c-4,6.6-5.8,14.3-5.3,22c0.5,7.9,2.9,15.5,6.9,22.3c4.3,7.2,10.2,13.2,17.3,17.6c7.8,4.9,16.6,8.3,25.7,10.2
	c9.1,1.9,18.5,2.8,27.9,2.7c0.7,0,1.5-0.7,1-1.5c-5.1-8.4-8.2-17.8-11-27.2c-4.7-15.3-9.3-32-21.5-43.2c-9.3-8.5-23.6-12.9-35.3-7.2
	c-3.5-4.2-6.9-8.5-10.2-12.9c-7.5-9.9-14.4-20.2-20.6-30.8C32.8,21.8,27.8,12.5,23.3,3c20.1,14.4,41,27.6,62.7,39.5
	c15.9,8.7,32.3,16.6,49,23.7c0,0.1,0,0.2,0,0.3c1,4.5,2.7,8.7,5,12.6c3.9,7.2,8.3,14.2,13.1,20.9c4.2,5.9,8.5,11.8,13.8,16.6l0,0
	c-5.9,4.1-8.3,11.7-7.6,18.6c0.8,7.8,5.5,14.8,10.9,20.2c4.8,4.8,10.1,8.9,16.1,12.3c12,6.6,25.2,10.3,38.8,10.8
	c0.6,0.1,1.1-0.4,1.2-1c0-0.2,0-0.3-0.1-0.5c-3.5-7.5-5.4-15.5-7.9-23.4c-2.2-7.1-5-13.9-8.6-20.4c-3.1-5.6-6.6-11.3-11.4-15.7
	c-4.2-4-9.5-6.8-15.4-7c-5.2-0.4-10.2,1.4-13.9,5c-2.9-2.6-5.6-5.5-8-8.6c-4.9-6.3-9.5-12.9-13.7-19.7c-2.1-3.4-4.1-6.8-6-10.3
	c-1.8-3.1-3.1-6.4-4-9.8c27.6,11.6,56.2,20.3,85.5,26.4c-0.1,0.3,0,0.6,0.2,0.8c4.1,4.7,8.4,9.1,13.2,13c8.5,7,17.9,12.7,28.1,17.1
	c9.9,4.2,20.2,6.9,30.8,8.2c0,0.2-0.1,0.4-0.1,0.6c1.8,9.2,8.8,16.3,16.4,21.2c12.5,7.8,26.9,12,41.5,12c14.7,0.2,29.1-3.5,41.7-11
	c0.6-0.3,0.8-0.9,0.5-1.4c-0.1-0.1-0.2-0.3-0.3-0.4c-7.6-5.7-15.1-11.5-22.8-17.1c-6.1-4.7-12.7-8.8-19.5-12.4
	c-6.8-3.4-14-5.7-21.4-7c-7.3-1.2-15.2-1.7-22.3,0.6c-6.2,2-11.8,6.4-14.3,12.5c-5.4-0.7-10.8-1.7-16.1-3.3
	c-10.4-3-20.2-7.3-29.4-13.2c-8.6-5.5-16.5-12.2-23.3-19.8c13.9,2.7,27.8,4.6,41.9,5.7c0.3,0.1,0.5,0,0.8-0.1
	c9.2,1.9,18.7,3.2,28,3.8c19,1.1,38.1-0.5,56.6-4.9c17.8-4.1,34.9-10.8,50.8-19.9c-0.1-0.1-0.3-0.2-0.3-0.3c-1-0.9,0.2-2.6,1.2-1.8
	c0.3,0.3,0.8,0.6,1.1,0.9c-0.6,0.4-1.3,0.8-1.9,1.2c5.2,4.1,11.3,7.1,17.8,8.9c10.9,2.6,22.3,1.2,32.2-3.8
	c11.3-5.6,20.4-14.9,27-25.6c0.3-0.5,0.2-1.2-0.3-1.5C480.8,56.6,480.7,56.6,480.6,56.6z"/>
</svg>
