<?xml version="1.0" encoding="utf-8"?>
<!-- Generator: Adobe Adobe Illustrator 24.2.0, SVG Export Plug-In . SVG Version: 6.00 Build 0)  -->
<svg aria-hidden="true" version="1.1" id="Layer_1" xmlns="http://www.w3.org/2000/svg" xmlns:xlink="http://www.w3.org/1999/xlink" x="0px" y="0px"
	 viewBox="0 0 204.2 241" style="enable-background:new 0 0 204.2 241;" xml:space="preserve">
<style type="text/css">
	.st0{fill:#F7EFDE;}
</style>
<g transform="translate(0 49.441) rotate(-19)">
	<path class="st0" d="M94.8,173.5c0.8,2.9,1.7,5.8,2.7,8.6c0.2,0.7,0.5,1.4,0.7,2.1c0.2,0.5,0.4,1.1,0.5,1.6
		c0.1,0.4,0.2,0.7,0.4,1.1c0.2,0.7,0.5,1.5,0.8,2.2c-1.3-0.5-2.5-1.2-3.6-2.1c-0.1-0.3-0.2-0.7-0.4-1v0c0.1-0.2,0.3-0.3,0.5-0.4
		c-0.7-3.5-1.2-7-1.5-10.6L94.8,173.5z"/>
	<path class="st0" d="M16.7,153.6c0.3,2,0.8,3.9,1.7,5.7c0.9,2,1.5,4.1,2.2,6.1c1.5,4.5,3.3,8.9,5.3,13.2c3.4,7.5,7.8,14.5,13,20.9
		c4.1,5.1,8.6,9.9,15,11.9c3.4,1.1,6.9,1.4,10.4,0.7c3.5-0.8,6.7-2.3,9.5-4.5c4.6-3.5,9.9-6.9,12.4-12.2c3.4,2.6,7.2,4.6,10.7,7.1
		c2.8,1.9,5.3,4.2,7.3,6.9c0.7,1.7,1.4,3.4,2.2,5.1c2.7,5.6,6,10.9,10,15.7c4.3,5.3,9.2,10.1,12.3,16.2c0.8,1.6,3.2,0.2,2.4-1.3
		c-3.3-6.5-8.5-11.6-13.1-17.2c-4.6-5.8-8.4-12.2-11.1-19c-2.6-6.4-4.7-13-7-19.6c0-0.1-0.1-0.2-0.1-0.3c-1.3-0.5-2.5-1.2-3.6-2.1
		c1.2,3.3,2.3,6.7,3.5,10c0.9,2.6,1.8,5.3,2.8,7.9c-1.4-1.3-2.8-2.5-4.4-3.6c-3.7-2.6-7.6-4.7-11.2-7.5c0,0,0-0.1,0-0.1
		c0.2-0.4,0-0.8-0.4-1c0,0-0.1,0-0.1,0c0.2-2.1-0.2-4.2-1-6.1c-1-2.3-2.2-4.5-3.7-6.5c-3.6-4.9-8.9-8.2-14.1-11.2
		c-5.1-2.9-10.5-5.4-16-7.3c-5.6-2.1-11.3-3.7-17.2-4.9c-3.1-0.4-6.1-1.1-9.1-1.8c-2.6-0.8-5.1-2-7.8-2.2
		C17.1,152.7,16.7,153.1,16.7,153.6C16.7,153.6,16.7,153.6,16.7,153.6z"/>
	<path class="st0" d="M-16.5,48.3c0.6,2.1,1.6,4.1,2.9,5.8c1.3,1.9,2.5,3.8,3.6,5.8c2.4,4.1,4.8,8.3,7.5,12.3
		c4.2,6.2,9.2,12.2,15.5,16.3c6.2,3.9,13.2,6.3,20.5,7.1c7.2,0.9,14.7,0.3,21.3-2.7c1.8-0.9,3.5-1.9,5.1-3.2c1.3-1,2.5-2.2,3.9-3.3
		c1.2-0.9,2.4-1.8,3.5-2.8c0.6-0.5,1.2-1.1,1.6-1.7c1.2,0.7,2.3,1.6,3.3,2.6c3.1,3,5.6,6.5,7.6,10.3c1.6,3,3.1,6.1,4.4,9.3
		c1.7,12.2,1.6,24.3,2.2,36.7c0.1,1.3,0.1,2.5,0.2,3.7c-2.8-5-6.4-9.5-10.8-13.2c0.2-0.1,0.4-0.3,0.5-0.5c0.9-2.7-0.2-5.9-1.2-8.4
		c-0.7-2-1.4-4-2.3-5.9c-0.8-1.8-2-3.5-3.3-4.9c-4.3-4.8-10.4-7.5-16.3-9.9c-5.6-2.2-11.5-3.3-17.5-3.1c-6.1,0-12.1,1.1-17.9,3.2
		c-3,1.1-5.7,2.6-8.6,3.9c-1.5,0.7-3.2,1.2-4.7,1.7c-1.4,0.6-3,1-4.5,1.1c-0.5,0-0.9,0.4-0.8,0.9c0,0.4,0.2,0.7,0.6,0.8
		c1.6,0.7,3.2,1.7,4.5,2.8c1.4,1.1,2.8,2.4,4,3.7c1.5,1.5,2.8,3.1,4.2,4.7c1.5,1.6,3,3.2,4.5,4.7c2.7,2.8,5.5,5.6,8.4,8.3
		c2.6,2.5,5.2,5.1,8.4,6.8c3,1.6,6.2,2.7,9.5,3.4c3.2,0.8,6.5,1.2,9.8,1c6.3-0.4,12.9-2.3,17.4-6.8c1.3-1.3,2.6-2.7,3.7-4.2
		c0.4-0.5,0.7-1,1-1.6c0.3,0.2,0.5,0.5,0.8,0.7c5,4.7,9.6,10.4,11.3,17.2c1.2,9.2,3.2,18.3,6,27.2c0.8,2.7,1.7,5.3,2.6,8
		c0.1-0.2,0.3-0.3,0.5-0.4c-0.7-3.5-1.2-7-1.5-10.6l-0.1-1.5c-0.3-1.1-0.6-2.2-0.9-3.2c-3.5-12.8-4.7-25.5-5-38.6
		c-0.2-8-0.6-16-1.5-23.9c0.3,0.1,0.7-0.1,0.8-0.4c1.4-2.5,3.2-4.7,5.2-6.6c0,0,0,0,0,0c0.1,0.2,0.2,0.3,0.3,0.4
		c5.3,3.7,12.2,4.3,18.4,2.9c5.8-1.2,11.1-4.2,15.1-8.5c4.4-4.9,6.5-11.7,7.4-18.1c1.1-7.3,0.6-14.8-1.2-22c-1-3.8-2.4-7.5-4.1-11.1
		c-1.7-3.9-4.3-7.4-7.4-10.3c-0.3-0.3-0.9-0.3-1.2,0c-0.1,0.1-0.2,0.2-0.2,0.4c-0.7,2.8-2.8,4.8-5.1,6.3c-2.6,1.6-5.3,3-8.1,4.3
		c-5.8,2.9-11.5,6.3-16,10.9c-3.4,3.6-5.8,8-6.7,12.9c-0.8,4.9-0.9,10-0.3,14.9c0.6,6.2,1.8,12.7,6.5,17.2c-1.2,1.2-2.2,2.5-3.2,4
		c-0.3-0.7-0.5-1.4-0.8-2c-0.4-2.9-0.9-5.8-1.5-8.7c-1.3-6.1-3-12.2-5.1-18.1c-1.9-5.7-3.5-11.4-5.8-17c0.1-0.2,0.1-0.3,0.1-0.5
		c-0.8-6.1,2.2-12.1,4.2-17.6c1-2.7,1.8-5.5,2.4-8.3c0.8-3.2,1.4-6.4,1.8-9.7c0.6-6.6,0.2-13.3-1.3-19.7c-1.4-6.4-3.7-12.7-6.9-18.5
		c-1.5-2.7-2.9-5.5-4.5-8.1c-1.5-2.6-3.5-5-5.9-6.8c-0.6-0.4-1.2,0.2-1.3,0.7c0,0.3-0.1,0.6-0.1,0.9c-0.1,0.1-0.1,0.3-0.1,0.5
		c0,0,0,0.1,0,0.1c-0.8,2.9-2,5.8-3.6,8.3c-1.8,3.1-3.8,6.1-5.3,9.4C52.2-6.7,50.7-3,49.5,0.7C48.1,4.4,47,8.2,46.3,12
		c-1.1,6.7-0.7,13.5,1,20c1.6,6.6,4.5,12.9,8.4,18.4c2.2,3,5.1,5.6,8.4,7.4c1.4,0.7,2.8,1.1,4.4,1.4c1.2,0.2,2.4,0.5,3.5,1v0
		c2.9,6.7,4.7,13.8,7.1,20.7c1.4,4.1,2.5,8.2,3.4,12.4c-1.3-2.5-2.8-4.8-4.5-7c-2.2-2.9-4.9-5.4-8.1-7.3
		C63.9,74.5,59,68.9,53.6,63.7c-8.7-8.7-20-14.4-32.2-16.2c-5.8-0.9-11.6-1.4-17.5-1.3c-6.5,0.1-13,1.7-19.5,1
		c-0.5,0-0.9,0.4-0.9,0.9C-16.5,48.2-16.5,48.2-16.5,48.3z"/>
	<path class="st0" d="M94.8,173.5c0.8,2.9,1.7,5.8,2.7,8.6c0.1,0.7,0.2,1.5,0.4,2.2c0.1,0,0.2-0.1,0.3-0.1c0.2,0.5,0.4,1.1,0.5,1.6
		c-0.2,0.1-0.3,0.1-0.5,0.2c0,0,0,0,0,0c0,0.1,0,0.2,0,0.3c0.3,0.2,0.6,0.4,0.8,0.5c0.2,0.7,0.5,1.5,0.8,2.2
		c-1.3-0.5-2.5-1.2-3.6-2.1l-0.2-0.1c-0.3-0.2-0.4-0.6-0.2-0.9v0c0.1-0.2,0.3-0.3,0.5-0.4c-0.7-3.5-1.2-7-1.5-10.6L94.8,173.5z"/>
	<path class="st0" d="M94.8,173.5c0.8,2.9,1.7,5.8,2.7,8.6c0.2,0.7,0.5,1.4,0.7,2.1c0.2,0.5,0.4,1.1,0.5,1.6
		c0.1,0.4,0.2,0.7,0.4,1.1c0.2,0.7,0.5,1.5,0.8,2.2c4.1,1.6,9,1.3,13.2,0.3c5.4-1.2,10.6-3.3,15.2-6.4c2.8-1.9,5.3-4.2,7.6-6.7
		c2.9-3.1,5.4-6.5,7.7-10.1c2.2-3.6,4-7.3,5.5-11.2c1.4-3.8,2.6-7.8,4-11.6c1.1-3.1,2.4-6,3.4-9.1c0.9-2.9,1.8-6.2,1.2-9.2
		c-0.1-0.5-0.6-0.7-1-0.6c-7.5,2.6-15.7,2.1-23.2,4.6c-6.6,2.1-12.8,5.7-18.7,9.1c-5.2,2.9-9.7,6.7-13.4,11.4
		c-3.4,4.5-5.6,9.9-6.4,15.6C94.5,167.8,94.5,170.7,94.8,173.5z"/>
</g>
</svg>
