<?xml version="1.0" encoding="utf-8"?>
<!-- Generator: Adobe Adobe Illustrator 24.2.0, SVG Export Plug-In . SVG Version: 6.00 Build 0)  -->
<svg version="1.1" id="Layer_1" xmlns="http://www.w3.org/2000/svg" xmlns:xlink="http://www.w3.org/1999/xlink" x="0px" y="0px"
	 viewBox="0 0 504.1 718.8" style="enable-background:new 0 0 504.1 718.8;" xml:space="preserve">
<style type="text/css">
	.st0{fill:#F7EFDE;}
</style>
<path class="st0" d="M175.1,0.6c4.4,5.9,8.4,12.1,12,18.6c5.9,11.1,9.4,24,6,36.4c-1.7,6.1-5.2,11.5-10.1,15.6
	c-4.6,4-9.9,8.1-16.1,9.2c-0.1,0-0.1,0-0.2,0c-3.4,9-6.2,18.3-8.2,27.7c-3.9,18.4-5.1,37.3-3.6,56.1c1.4,16.8,4.9,33.3,10.6,49.1
	c0.3-3,0.6-6,1.2-9c2.6-14.1,8.1-27.4,16.3-39.1c0-0.1,0-0.1,0-0.2c-0.1-0.1-0.3-0.2-0.4-0.3c-1.8-2.2-2.9-5-3.2-7.8
	c-0.4-3.1-0.4-6.3,0-9.4c1.2-11.6,6.4-22.5,13.9-31.3c7.1-8.3,16.1-14.8,25.7-19.9c0.5-0.3,1.2-0.1,1.5,0.5c0,0.1,0.1,0.1,0.1,0.2
	c1.1,6.8,1.5,13.8,1,20.7c-0.4,6.2-1.4,12.3-3.1,18.3c-0.8,3-2,5.9-3.4,8.6c-1.5,2.7-3.3,5.1-5.4,7.4c-2,2.2-4.3,4.3-6.5,6.3
	c-1.8,1.7-3.8,3.2-5.9,4.6c-3.7,2.4-8,4.1-12.4,3.2c-10.3,14.6-16.4,31.8-17.5,49.6c0.2,0.2,0.3,0.4,0.3,0.7
	c8.2,33.9,20.7,66.6,37.1,97.4c2.1-3,4-6.2,5.9-9.4c7.5-13.2,12.5-27.7,14.8-42.8c-0.3,0.4-0.9,0.4-1.3,0.1
	c-6.1-4.2-11-9.9-14.2-16.5c-6.1-12.4-7-26.8-4.2-40.1c3.6-17.4,12.7-33.1,21.6-48.3c0.3-0.5,1-0.6,1.5-0.3
	c23.4,13.3,35.5,40.2,30,66.5c-3.9,17.1-14.9,31.8-30.2,40.5c-0.4,0.3-1,0.1-1.3-0.3c-0.5,3.3-1.2,6.6-2,9.8
	c-3.8,15.4-10.4,29.9-19.4,42.9c0.3,0.5,0.5,1,0.8,1.5c30.8,57.2,73.2,108.2,121.3,151.8c8.7,7.8,17.6,15.3,26.8,22.5
	c-2-3.3-3.9-6.8-5.5-10.3c-3.9-8.3-6.9-16.9-9-25.8c-2-8.1-3.3-16.3-4.6-24.6c-0.9-0.1-4-0.5-5-0.7c-9.3-1.8-17.7-7-24.1-13.9
	c-6.6-7.2-11.2-16-13.2-25.6c-2.1-10.2-2-20.7,0.2-30.9c2.2-11,6.5-21.4,11.7-31.3c5.6-10.6,12.3-20.7,19-30.7
	c0.5-0.7,1.8-0.6,2,0.3c0.2,1.2,0.4,2.4,0.7,3.6c2.4,10,9.5,17.9,16.1,25.4c6.7,7.6,13.5,15.2,17.5,24.7c3.7,9,5.4,18.8,4.8,28.6
	c-0.5,9.8-3.1,19.3-7.5,28.1c-4.4,8.7-10.8,16.3-18.7,22c-0.3,0.3-0.7,0.3-1.1,0.2c0.6,4,1.3,8,2,11.9c1.6,9.1,3.9,18.1,6.9,26.9
	c3.1,8.3,7,16.3,11.8,23.8c0.2,0.3,0.2,0.6,0.1,0.9c15.4,11.7,31.7,22,48.8,31l3.6,1.9c2.1,1.1,4.3,2.1,6.5,3.2
	c30.1,14.3,62.6,26.1,85.9,51c0.6,0.7,0.5,1.8-0.2,2.4c-0.7,0.6-1.7,0.5-2.3-0.1c-25.5-27.2-61.9-38.5-94.4-54.9
	c-21.6-0.4-43.2,1-64.5,4c-22.7,3.3-45.1,8.5-66.9,15.6c-5.8,3.7-11.6,7.6-17,11.9c-11.5,9-21.9,19.5-29.3,32.2
	c-1.7,2.9-3.2,6-4.6,9.1c-0.1,0.4-0.1,0.8-0.1,1.2c-0.1,1.2-0.2,2.3-0.3,3.5c-0.1,2.3-0.2,4.5-0.2,6.8c0,4.6-0.2,9.2-0.8,13.8
	c-2.1,13.7-9.7,26-21.1,33.9c-2.8,1.9-5.8,3.6-9,4.9c-3,1.2-6.2,2.2-9.3,3.1c-6.2,1.9-12.6,4-17.1,8.8c-0.4,0.4-1.1,0.4-1.5-0.1
	c-0.1-0.1-0.2-0.3-0.2-0.5c-0.8-3.7,0.7-7.3,2-10.6c1.3-3.5,2.8-6.9,4.4-10.2c5.8-12.1,13.4-23.2,22.5-33.1
	c4.5-4.9,9.4-9.4,14.7-13.6c5.5-4.3,11.3-8.3,16.1-13.3c0.1-0.1,0.1-0.1,0.2-0.2c5.4-10.5,12.6-19.9,21.3-27.9
	c6.7-6.2,13.9-11.9,21.5-17c-13.4,4.6-26.5,10-39.3,16.1c-18.7,8.8-37.4,18.8-53.5,31.8c-15.1,12.2-25.6,29.3-41.4,40.7
	c-0.4,0.3-0.8,0.6-1.2,0.8c-3.5,1.7-5.9,4.3-8.6,7c-2.4,2.5-4.6,5-6.7,7.7c-2.4,3.1-4.9,6.1-7.2,9.2c-1.4,1.8-2.7,3.6-4,5.5
	c-0.8,2.9-1.5,5.9-2.3,8.8c-0.8,3.1-1.5,6.3-2.5,9.4c-1.3,4.2-3.7,7.9-6.9,10.9c-2.9,2.4-6,4.5-9.4,6.1c-6.6,3.4-14.1,6.5-18.5,12.8
	c-0.3,0.5-1,0.6-1.5,0.3c-0.2-0.1-0.4-0.4-0.4-0.6c-0.8-4.8-0.1-9.7,2.2-14.1c2.1-4,4.7-7.7,7.9-10.9c3.2-3.4,6.5-6.7,10-9.9
	c6.8-6.3,14.1-12.1,21.7-17.4c0.2-0.2,0.5-0.2,0.7-0.2c3.2-4.3,6.5-8.4,9.9-12.6c3.3-4.1,6.9-8.2,11.2-11.2c-3,0.9-6,1.8-9.1,2.5
	c-8.1,1.9-16.4,3-24.7,3.3c-0.3,0.3-0.8,0.4-1.3,0.2c-0.1,0-0.1-0.1-0.2-0.1c0.2,0.5,0.1,1.1-0.4,1.3c-0.1,0-0.2,0.1-0.3,0.1
	c-8.5,1.6-16.2,5.7-24.5,7.8c-25.7,6-52.4-4.9-66.6-27.2c-0.3-0.5-0.1-1.2,0.5-1.5c0.2-0.1,0.3-0.1,0.5-0.1
	c7.8-0.5,15.6-1.1,23.4-1.6c6.9-0.5,13.8-1,20.7-1.4c6.5-0.4,13.1-0.4,19.4,1.3c3,0.8,6,2.1,8.6,3.8c2.3,1.6,4.6,3.3,6.6,5.3
	c4,3.6,7.7,7.6,12.5,10.1c12.6-0.4,25.1-2.8,37-6.9c0.3-0.2,0.5-0.4,0.8-0.5c9.8-6.7,17.3-16,25.1-24.8c7.7-8.6,16.4-16.4,25.8-23
	c1.5-1,3-2.1,4.5-3.1c-3.4,0.3-6.8,0.5-10.3,0.5c-8.7,0-17.4-0.8-25.9-2.5c-0.2,0.5-0.7,0.8-1.3,0.8c-0.1,0.2-0.3,0.4-0.5,0.5
	c-37.9,18.8-83.8,3.4-102.7-34.4c-1.1-2.2-2.1-4.4-2.9-6.7c-0.3-0.5,0-1.2,0.5-1.5c0.2-0.1,0.5-0.1,0.7-0.1c9.4,1.8,19,3,28.6,3.5
	c8.5,0.4,17,0.1,25.5,0.3c8.1,0.2,16.3,1,23.9,3.9c7.2,2.6,13.4,7.3,17.9,13.4c4.1,5.5,6.9,11.7,9.6,18c13.4,2.8,27.1,3.4,40.7,1.8
	c14.6-9.4,30.3-17.2,46.1-24.2c18-8,36.6-14.6,55.5-19.9c12.3-3.4,24.8-6.3,37.4-8.5c-2.2,0-4.3-0.1-6.5-0.2
	c-16.1-0.8-31.9-4.1-47-9.6c-1.7-0.6-3.4-1.3-5.1-2c0,0.5-0.3,0.9-0.8,1c-23.7,5.9-48.7-1-65.9-18.3c-10-10.2-16.7-23.3-19.1-37.4
	c-0.1-0.6,0.2-1.2,0.8-1.3c0.2,0,0.4,0,0.5,0l27,5.9c8,1.7,15.9,3.5,23.9,5.2c3.9,0.8,7.7,1.6,11.6,2.5c3.6,0.7,7.1,2,10.4,3.7
	c5.9,3.3,9.2,9.4,10.9,15.8c1.8,6.7,2,13.8,0.8,20.6c10,4.1,20.5,7.2,31.1,9.2c15.6,3,31.6,3.5,47.4,1.6c0.2,0,0.4,0,0.6,0.1
	c16.9-2.1,33.9-3.2,50.9-3.2c-31.7-17.1-59.9-39.9-85.8-64.6c-4.7-4.5-9.4-9.1-14-13.7c-6.2-1.8-12.4-3.8-18.6-5.9
	c-11.7-4.1-23.3-8.9-34.5-14.2c-9.5-4.5-18.7-9.5-27.7-14.9c-0.7,0.7-2.6,3-3.3,3.6c-5.9,4.9-13.2,7.9-20.9,8.6
	c-7.8,0.7-15.7-0.5-23-3.4c-7.7-3.2-14.6-8.1-20.1-14.4c-6-7-10.7-15.1-13.9-23.8c-3.3-8.8-5.6-17.9-6.9-27.1
	c-0.1-0.7,0.5-1.6,1.4-1.3c9.1,3.8,18.8,5.4,28.5,6.8c15.8,2.3,33,4.3,45.9,14.7c9.7,7.9,16.4,21.4,12.4,33.9
	c4.7,2.8,9.4,5.5,14.3,8.1c10.9,5.9,22.1,11.1,33.6,15.8c9.8,4,19.7,7.4,29.8,10.5c-17.3-17.7-33.5-36.3-48.5-56
	c-11-14.4-21.3-29.4-30.8-44.8c-0.1,0-0.2,0-0.3,0c-4.5-0.3-9-1.4-13.2-3.1c-7.7-2.8-15.3-6.1-22.6-9.8c-6.4-3.2-12.9-6.6-18.5-11.2
	l0,0c-3.1,6.5-10.3,10-17.2,10.4c-7.9,0.4-15.4-3.2-21.7-7.7c-5.5-4-10.4-8.7-14.5-14c-8.3-10.8-14-23.4-16.5-36.7
	c-0.1-0.6,0.2-1.2,0.8-1.3c0.2,0,0.4,0,0.5,0c7.9,2.3,16.2,3,24.3,4.3c7.3,1.1,14.4,2.9,21.4,5.4c6.1,2.2,12.2,4.8,17.2,8.9
	c4.5,3.6,8.1,8.4,9.3,14.2c1.2,5,0.1,10.3-2.9,14.5c3,2.5,6.3,4.8,9.7,6.7c6.9,3.9,14.1,7.4,21.5,10.5c3.7,1.6,7.4,3,11.1,4.4
	c3.3,1.3,6.8,2.1,10.3,2.5c-15.6-25.5-28.6-52.5-38.9-80.6c-0.3,0.1-0.6,0-0.8-0.1c-5.2-3.3-10.2-7-14.8-11.1
	c-8.2-7.3-15.3-15.8-21.1-25.2c-5.6-9.1-9.9-18.9-12.7-29.3c-0.2,0.1-0.4,0.2-0.6,0.2c-9.4-0.4-17.4-6.2-23.4-13
	c-9.6-11.1-15.9-24.7-18.2-39.2c-2.4-14.5-0.9-29.3,4.5-42.9c0.2-0.6,0.8-0.9,1.4-0.7c0.2,0.1,0.3,0.1,0.4,0.3
	c6.8,6.6,13.6,13.2,20.3,19.9c5.5,5.4,10.6,11.2,15.2,17.5c4.4,6.2,7.8,13,10.2,20.2c2.4,7.1,4,14.7,2.8,22.2
	c-1.1,6.5-4.5,12.7-10.3,16.1c1.5,5.3,3.4,10.4,5.6,15.4c4.5,9.8,10.3,18.9,17.4,27c6.7,7.7,14.5,14.5,23.1,20
	c-4.7-13.3-8.7-26.8-12-40.5c-0.1-0.3-0.1-0.5,0-0.8c-3.3-8.8-6-17.9-8-27.2c-4-18.6-5.2-37.7-3.7-56.7c1.4-18.2,5.4-36.1,11.9-53.2
	c0.1,0.1,0.2,0.2,0.3,0.3c1,0.9,2.6-0.6,1.6-1.5c-0.4-0.3-0.7-0.6-1.1-1c-0.3,0.7-0.6,1.4-0.8,2.1c-4.9-4.6-8.7-10.1-11.4-16.2
	c-4.2-10.3-4.6-21.8-1.2-32.4c3.8-12,11.7-22.5,21.2-30.6c0.5-0.4,1.1-0.4,1.5,0.1C175,0.4,175,0.5,175.1,0.6z"/>
</svg>
