<?xml version="1.0" encoding="utf-8"?>
<!-- Generator: Adobe Adobe Illustrator 24.2.0, SVG Export Plug-In . SVG Version: 6.00 Build 0)  -->
<svg version="1.1" id="Layer_1" xmlns="http://www.w3.org/2000/svg" xmlns:xlink="http://www.w3.org/1999/xlink" x="0px" y="0px"
	 viewBox="0 0 334 513" style="enable-background:new 0 0 334 513;" xml:space="preserve">
<style type="text/css">
	.st0{fill:#F7EFDE;}
</style>
<g transform="translate(0 49.441) rotate(-19)">
	<path class="st0" d="M-100.6,210.4c-1.1-3.7-2.2-7.3-3.4-10.9c-0.3-0.9-0.6-1.8-0.9-2.7c-0.2-0.7-0.5-1.4-0.7-2
		c-0.2-0.5-0.3-0.9-0.5-1.4c-0.3-0.9-0.6-1.9-1-2.8c1.7,0.6,3.2,1.5,4.6,2.6c0.1,0.4,0.3,0.9,0.5,1.3v0c-0.1,0.2-0.4,0.4-0.6,0.5
		c0.9,4.4,1.5,8.9,1.9,13.4L-100.6,210.4z"/>
	<path class="st0" d="M-1.4,235.7c-0.3-2.5-1.1-5-2.2-7.3c-1.1-2.6-1.9-5.1-2.8-7.8c-1.9-5.7-4.2-11.3-6.7-16.8
		c-4.4-9.5-9.9-18.4-16.5-26.5c-5.2-6.4-11-12.6-19-15.1c-4.3-1.4-8.8-1.7-13.2-0.9c-4.4,1-8.6,2.9-12.1,5.7
		c-5.8,4.4-12.5,8.8-15.8,15.5c-4.3-3.3-9.1-5.9-13.6-9c-3.6-2.4-6.7-5.3-9.3-8.8c-0.9-2.2-1.8-4.4-2.8-6.5
		c-3.4-7.1-7.7-13.8-12.7-20c-5.5-6.7-11.6-12.8-15.6-20.6c-1-2-4-0.3-3,1.7c4.2,8.3,10.8,14.7,16.6,21.9
		c5.8,7.3,10.6,15.5,14.2,24.2c3.3,8.1,6,16.6,8.9,24.8c0,0.1,0.1,0.3,0.1,0.4c1.7,0.6,3.2,1.5,4.6,2.6c-1.5-4.3-3-8.5-4.5-12.7
		c-1.2-3.3-2.3-6.7-3.5-10c1.7,1.7,3.6,3.2,5.6,4.6c4.7,3.3,9.7,6,14.2,9.5c0,0,0,0.1-0.1,0.1c-0.2,0.5,0,1,0.5,1.2c0,0,0.1,0,0.1,0
		c-0.2,2.6,0.2,5.3,1.3,7.7c1.2,2.9,2.8,5.7,4.7,8.3c4.6,6.3,11.3,10.4,17.9,14.2c6.5,3.7,13.3,6.8,20.3,9.3
		c7.1,2.6,14.4,4.7,21.8,6.3c3.9,0.6,7.7,1.3,11.5,2.3c3.3,1,6.5,2.5,9.9,2.8C-1.9,236.8-1.4,236.3-1.4,235.7
		C-1.4,235.7-1.4,235.7-1.4,235.7z"/>
	<path class="st0" d="M40.8,369.4c-0.8-2.7-2-5.1-3.7-7.3c-1.6-2.4-3.2-4.8-4.6-7.3c-3-5.3-6-10.6-9.5-15.6
		c-5.4-7.9-11.7-15.5-19.7-20.7c-7.9-4.9-16.8-8-26.1-9.1c-9.1-1.2-18.7-0.4-27.1,3.4c-2.3,1.1-4.5,2.5-6.5,4.1
		c-1.7,1.3-3.2,2.8-4.9,4.2c-1.5,1.2-3,2.3-4.4,3.5c-0.8,0.6-1.5,1.4-2.1,2.2c-1.5-0.9-2.9-2-4.2-3.2c-3.9-3.8-7.1-8.2-9.6-13.1
		c-2.1-3.8-3.9-7.8-5.6-11.9c-2.1-15.5-2.1-30.9-2.8-46.5c-0.1-1.6-0.2-3.2-0.3-4.7c3.5,6.4,8.2,12,13.7,16.7
		c-0.3,0.1-0.5,0.4-0.6,0.7c-1.2,3.4,0.3,7.4,1.5,10.7c0.9,2.5,1.7,5,2.9,7.5c1.1,2.3,2.5,4.4,4.2,6.2c5.5,6.1,13.2,9.6,20.7,12.6
		c7.1,2.8,14.6,4.1,22.2,4c7.7-0.1,15.4-1.4,22.7-4c3.8-1.4,7.3-3.3,11-4.9c2-0.9,4-1.5,6-2.2c1.8-0.8,3.8-1.3,5.7-1.5
		c0.6,0,1.1-0.5,1.1-1.1c0-0.5-0.3-0.9-0.8-1c-2.1-0.9-4-2.1-5.7-3.6c-1.8-1.5-3.5-3-5.1-4.7c-1.9-1.9-3.6-4-5.4-5.9
		c-1.8-2-3.8-4-5.7-6c-3.5-3.6-7-7.1-10.6-10.6c-3.3-3.2-6.6-6.5-10.7-8.7c-3.8-2-7.9-3.4-12.1-4.4c-4.1-1-8.2-1.5-12.4-1.3
		c-8,0.5-16.4,2.9-22.1,8.7c-1.7,1.7-3.3,3.4-4.7,5.3c-0.5,0.6-0.9,1.3-1.2,2c-0.3-0.3-0.7-0.6-1-0.9c-6.3-6-12.2-13.2-14.3-21.8
		c-1.5-11.7-4-23.2-7.6-34.5c-1.1-3.4-2.2-6.8-3.3-10.1c-0.1,0.2-0.4,0.4-0.6,0.5c0.9,4.4,1.5,8.9,1.9,13.4l0.2,1.9
		c0.4,1.4,0.8,2.7,1.2,4.1c4.4,16.2,6,32.3,6.3,49.1c0.2,10.2,0.7,20.3,1.9,30.4c-0.4-0.1-0.9,0.1-1,0.5c-1.8,3.1-4,5.9-6.6,8.4
		c0,0,0,0,0,0c-0.1-0.2-0.2-0.4-0.4-0.6c-6.7-4.7-15.5-5.4-23.3-3.7c-7.3,1.6-14,5.3-19.2,10.8c-5.6,6.2-8.2,14.9-9.4,23
		c-1.3,9.3-0.8,18.8,1.6,27.9c1.3,4.8,3,9.5,5.2,14c2.2,5,5.4,9.4,9.5,13c0.4,0.4,1.1,0.4,1.5,0c0.1-0.1,0.2-0.3,0.3-0.5
		c0.9-3.5,3.6-6,6.5-8c3.3-2,6.7-3.9,10.3-5.5c7.3-3.7,14.6-8,20.4-13.9c4.4-4.5,7.3-10.2,8.5-16.4c1-6.3,1.1-12.6,0.4-18.9
		c-0.7-7.9-2.3-16.1-8.2-21.8c1.5-1.6,2.8-3.2,4-5c0.3,0.9,0.7,1.7,1,2.6c0.5,3.7,1.1,7.3,1.9,11c1.7,7.8,3.9,15.5,6.5,23
		c2.4,7.2,4.4,14.5,7.3,21.5c-0.1,0.2-0.1,0.4-0.1,0.7c1,7.7-2.8,15.4-5.4,22.4c-1.2,3.4-2.3,6.9-3.1,10.5c-1,4.1-1.7,8.2-2.2,12.3
		c-0.8,8.4-0.2,16.8,1.7,25c1.8,8.2,4.7,16.1,8.7,23.4c1.9,3.5,3.7,7,5.8,10.3c1.9,3.4,4.5,6.3,7.5,8.7c0.7,0.5,1.5-0.2,1.6-0.9
		c0-0.4,0.1-0.7,0.2-1.1c0.1-0.2,0.2-0.4,0.1-0.6c0,0,0-0.1,0-0.1c1-3.7,2.5-7.3,4.6-10.6c2.2-4,4.8-7.8,6.7-11.9
		c2.1-4.5,4-9.2,5.6-13.9c1.7-4.7,3.1-9.5,4-14.4c1.3-8.5,0.9-17.1-1.3-25.4c-2.1-8.4-5.7-16.4-10.7-23.4c-2.8-3.9-6.4-7.1-10.6-9.4
		c-1.8-0.8-3.6-1.5-5.5-1.8c-1.5-0.2-3.1-0.7-4.5-1.3v0c-3.6-8.5-6-17.6-9-26.3c-1.7-5.2-3.2-10.4-4.3-15.7c1.7,3.1,3.6,6.1,5.7,8.9
		c2.8,3.7,6.2,6.9,10.2,9.2c7.5,5.8,13.8,13,20.6,19.5c11.1,11,25.4,18.3,40.9,20.6c7.3,1.2,14.8,1.7,22.2,1.6
		c8.3-0.1,16.5-2.1,24.8-1.3c0.6,0,1.1-0.5,1.1-1.1C40.8,369.6,40.8,369.5,40.8,369.4z"/>
	<path class="st0" d="M-100.6,210.4c-1.1-3.7-2.2-7.3-3.4-10.9c-0.2-0.9-0.3-1.9-0.5-2.8c-0.1,0.1-0.3,0.1-0.4,0.2
		c-0.2-0.7-0.5-1.4-0.7-2c0.2-0.1,0.4-0.2,0.6-0.3c0,0,0,0,0,0c0-0.1,0-0.3,0-0.4c-0.3-0.2-0.7-0.4-1.1-0.6c-0.3-0.9-0.6-1.9-1-2.8
		c1.7,0.6,3.2,1.5,4.6,2.6l0.2,0.2c0.4,0.3,0.5,0.8,0.2,1.2v0c-0.1,0.2-0.4,0.4-0.6,0.5c0.9,4.4,1.5,8.9,1.9,13.4L-100.6,210.4z"/>
	<path class="st0" d="M-100.6,210.4c-1.1-3.7-2.2-7.3-3.4-10.9c-0.3-0.9-0.6-1.8-0.9-2.7c-0.2-0.7-0.5-1.4-0.7-2
		c-0.2-0.5-0.3-0.9-0.5-1.4c-0.3-0.9-0.6-1.9-1-2.8c-5.2-2-11.4-1.6-16.8-0.4c-6.9,1.5-13.4,4.2-19.3,8.1c-3.5,2.5-6.7,5.3-9.6,8.5
		c-3.6,4-6.9,8.2-9.7,12.8c-2.8,4.5-5.1,9.3-6.9,14.3c-1.8,4.9-3.3,9.8-5.1,14.7c-1.4,3.9-3.1,7.7-4.3,11.6
		c-1.2,3.7-2.3,7.8-1.5,11.7c0.1,0.6,0.7,0.9,1.3,0.8c9.5-3.4,19.9-2.7,29.5-5.8c8.4-2.7,16.2-7.2,23.8-11.6
		c6.6-3.6,12.4-8.5,17-14.5c4.4-5.8,7.2-12.6,8.1-19.8C-100.2,217.6-100.2,214-100.6,210.4z"/>
</g>
<g>
	<path class="st0" d="M-50.5,135.9c2.3,7.1,6,13.6,11.1,19.1c9.3,10.2,21.7,16.9,34.6,20.8c13.4,4.1,27.2,5.5,41,6.9
		c1.3,0.1,2-1.8,0.8-2.5c-7.2-4.1-13.9-9-20-14.6c-10.9-9.8-20.8-20.8-33-29.1c-9.6-6.6-22.4-12.2-33.5-6.9
		c-0.3,0.1-0.5,0.4-0.7,0.7c-4-3.1-7.9-6.4-11.6-9.8c-13.5-12.3-25.4-26.3-35.3-41.6c-0.2-0.3-0.6-0.6-1-0.6c0.2-16,0.8-32,1.2-47.9
		c0.9-31.5,0.6-64.7-11.9-94.5C-79-19.6-40,18.2,4.4,48.3C4,48.8,4,49.5,4.5,50c5.6,6.5,9.5,14,12.7,21.9c2.8,6.9,5.2,14,8,20.9
		c3,7.3,6.4,14.4,10,21.3c6.7,13,15.3,24.9,25.7,35.2c-0.2,0.4,0,0.9,0.3,1.3c0.1,0.1,0.2,0.2,0.3,0.3c-5.9,5.1-6.4,14.3-4.9,21.8
		c1.5,7.4,5.1,14.3,10.4,19.7c5.6,5.7,12.7,9.3,20.1,11.8c15.4,5.1,32.1,5,47,12.1c1.2,0.6,2-0.9,1.6-1.9
		c-3.2-8.3-3.2-17.2-3.7-25.9c-0.4-7.7-1-15.5-4-22.7c-3.5-8.5-9.9-15.4-18.1-19.6c-4.1-2-8.4-3.4-12.9-4.3c-4.3-1-8.7-1.4-13.1-1.4
		c-7.5,0.1-15.2,2.5-20.1,8.1c-6.1-5.8-11.6-12.2-16.4-19.1c-4.3-6.3-8.2-12.9-11.5-19.7c-3.5-7-6.9-14.1-9.7-21.4
		c-5-12.7-9.1-25.9-17.3-36.9c2.6,1.7,5.2,3.4,7.8,5C45.9,75,77,89.4,108.2,104c9.6,4.5,19.2,9,28.8,13.7c0.1,0.1,0.2,0.3,0.3,0.4
		c3.1,3.5,6.3,7,9.1,10.7c2.5,3.2,4.7,6.7,6.5,10.4c1.7,3.8,2.9,7.7,3.6,11.7c1.8,8.6,3.6,17.2,5.4,25.9c-0.7,0.1-1.2,0.8-1.1,1.5
		v0.1c-7.3,6.3-12.9,14.3-16.2,23.4c-6.3,17.4-3.1,37.3,7.8,52.6c6.1,8.5,14.6,14.5,23,20.5c9.2,6.5,17.4,14.3,24.4,23.2
		c0.9,1.2,2.4,0.1,2.3-1.1c-0.9-10.7,1.8-21.2,3.2-31.7c2.3-17.1-0.3-34.4-7.5-50c-7.1-15.8-18.4-29.3-32.8-39
		c-0.2-0.1-0.4-0.2-0.6-0.2l-3-14.6c-1.8-8.4-2.9-17.3-7-25.1c-3.1-5.7-6.9-11-11.3-15.8c19.4,9.5,38.7,19.3,57.5,30
		c-0.1,0.3-0.1,0.7,0.1,1c4.6,9.3,10.9,17.7,18.5,24.7c13.6,12.6,31.4,20.6,49.8,19.8c10.6-0.4,20.9-3.3,30.9-6.5
		c11.2-3.5,22.3-7.4,33.4-11.5c0.7-0.3,0.9-1.1,0.6-1.8l0,0c-5.4-9.2-12.8-17.1-21.6-23.1c-15.7-11-34.7-16.1-53.5-16.3
		c-19-0.2-37.7,4.1-55.4,10.3c-32.8-18.6-66.9-34.7-101-50.7c-8.8-4.1-17.6-8.3-26.3-12.6c1.8,0.3,3.7,0.7,5.5,1
		c2.8,0.4,5.6,0.6,8.4,0.6c3.1-0.1,6.1-0.4,9.1-0.8c11.1-1.3,22.1-3.1,33.2-4.9c10.5-1.7,21.1-3.2,31.8-3c5.3,0.1,10.7,0.9,16,1.5
		c2.9,0.3,5.7,0.5,8.6,0.7c1,0.1,1.9,0.1,2.9,0.1c0.3,0.2,0.6,0.3,0.9,0.3c1.2-0.1,2.4-0.2,3.7-0.4c6.8,4,14.3,6.8,22.1,8.2
		c15,2.9,30.4,1,44.5-4c16.4-5.8,30.9-15.8,43.8-27.2c0.6-0.5,0.6-1.4,0-2c-0.1-0.2-0.3-0.3-0.5-0.3c-9.4-4-18.8-8.1-28.5-11.1
		c-15.8-4.9-32.8-7-48.6-2c-8.1,2.7-15.4,7.3-21.4,13.4c-6.4,6.5-11.3,14.2-15.6,22.2c-0.1,0-0.2,0-0.2,0.1c-0.1,0-0.2,0-0.4,0.1
		c-0.3,0-0.3,0-0.4,0c-0.2,0-0.4,0-0.6,0c-1.3,0-2.6-0.1-3.9-0.2c-3.4-0.2-6.8-0.6-10.3-0.9c-5.9-0.7-11.8-1.1-17.7-1
		c-10.4,0.4-20.8,2-31,3.7c-1.9,0.3-3.8,0.6-5.7,0.9c2.9-1.5,5.8-3.2,8.6-5c4.1-2.7,8-5.7,11.7-8.9c3.8-3.3,7.3-6.9,11.1-10.1
		c6.7-5.8,14.4-10,22.4-13.8c0,0,0,0.1,0.1,0.1c3.8,6.4,11.1,9.1,18.2,9.2c14.8,0.1,27.5-9.9,37.1-20.1c11.1-11.8,19.8-25.9,32.7-36
		c0.6-0.5,0.6-1.4,0-2c-0.3-0.3-0.8-0.5-1.2-0.4c-4.6,1.1-9.4,0.6-14.1-0.1c-4.8-0.8-9.5-1.7-14.3-2.4c-16.7-2.4-34.8-2.2-48.5,8.6
		c-6.4,4.9-10.7,12.1-12.1,20c-1.1,6.8-0.5,13.8,1.6,20.4c-4.4,2-8.7,4.2-12.9,6.7c-4.1,2.5-7.9,5.3-11.5,8.4
		c-3.8,3.3-7.3,6.9-11.1,10.1c-7.5,6.4-15.8,12-25,15.6c-0.4,0.1-0.7,0.5-0.8,1c-6.4,1-12.9,1.8-19.3,2.5c-4.9,0.5-9.9,0.3-14.7-0.6
		c-4.1-0.7-8.2-1.6-12.3-2.2C48.4,70.5,29.8,60,12,48.5c-27.5-18-52.9-39-75.6-62.8c-3.6-3.8-7.1-7.7-10.6-11.6
		c7.6,4.9,15.8,8.6,24.6,10.9c11.1,3.2,22.4,4.9,33.8,6.5C-10.5-7.7-5.2-7,0.1-6.1c5.4,0.9,10.8,1.9,16.2,2.7
		C38-0.5,61.4,0.2,80.8,12c-0.1,0.4,0.1,0.7,0.4,1c-0.2,0.3-0.3,0.7-0.2,1c1,6.3,3,12.4,5.7,18.1c2.4,5.1,5.8,9.6,10.1,13.2
		c4.1,3.4,8.7,6,13.7,7.7c10.8,3.9,22.3,4,33.6,4.1c0.7,0.1,1.4-0.5,1.4-1.2c0-0.1,0-0.2,0-0.4c-2.3-8.1-4.7-16.3-8.2-24.1
		c-5.6-12.6-14.8-25.1-28.1-30.1c-5.4-2-11.4-2.6-16.9-0.9C88,1.8,83.5,5,82.5,9.6C72.1,3.3,60.3,0,48.4-2.1
		c-11.3-2-22.7-2.8-34.1-4.4C9-7.2,3.8-8.3-1.4-9.2c-5.4-0.9-10.9-1.6-16.4-2.4c-11.3-1.7-22.7-3.5-33.7-6.9
		c-10.4-3.2-20.6-8-28.6-15.8c-0.3-0.3-0.8-0.5-1.3-0.4c-14.4-17.5-27.1-36-38-55.4c-0.3-0.7-0.6-1.3-1-2c-0.1-0.2-0.3-0.4-0.4-0.5
		c-16.2-29.1-28.8-60.2-37.5-92.4c-0.7-2.7-5-2-4.3,0.7c9.5,35.8,23.8,70.2,42.5,102.2c-0.3,0.4-0.3,0.9-0.1,1.3
		c1.5,4.1,2.9,8.2,4.7,12.2c0,0.1,0.1,0.2,0.1,0.3c0,0.2,0.1,0.4,0.2,0.6c8.6,18.1,12.2,37.8,13.5,57.5c1.1,17.4,0.6,34.7,0,52.1
		c-0.6,17-0.7,33.9-0.7,50.9c0,35.9,0.1,73.5,14.1,107.6c-4.7,8.1-6.5,17.7-6.3,27.2c0.2,9.4,2.2,18.7,4.8,27.7
		c2.6,9.1,6.3,18,13.7,24.3c7.2,6.2,16.4,9.5,25,13.1c8.8,3.7,18.2,8.3,23.4,16.8c0.9,1.5,3.4,0.4,2.4-1.1c-5.1-8.1-7-17.4-8.1-26.7
		c-1-8.5-1.4-17-2.9-25.4c-1.6-8.7-4.7-17-9.2-24.6c-8.9-15.2-22.7-26.9-39.1-33.3c-8.1-19.9-11.3-41.3-12.6-62.4
		c-1.1-17.9-1.3-35.9-1.1-53.9c2.5,3.7,5,7.4,7.7,10.9c11.3,14.9,24.4,28.3,39.1,39.8l0,0"/>
</g>
</svg>
