<?xml version="1.0" encoding="utf-8"?>
<!-- Generator: Adobe Adobe Illustrator 24.2.0, SVG Export Plug-In . SVG Version: 6.00 Build 0)  -->
<svg version="1.1" id="Layer_1" xmlns="http://www.w3.org/2000/svg" xmlns:xlink="http://www.w3.org/1999/xlink" x="0px" y="0px"
	 viewBox="0 0 466.4 394.7" style="enable-background:new 0 0 466.4 394.7;" xml:space="preserve">
<style type="text/css">
	.st0{fill:#F7EFDE;}
</style>
<path class="st0" d="M170.1,336.6c-6.5-1.1-12.6-3.6-18-7.4c-10-6.9-17.2-17.1-22.1-28.1c-5-11.3-7.8-23.5-10.5-35.6
	c-0.2-1.1,1.4-2.1,2.1-1c4.3,5.9,9.4,11.2,15,15.9c9.8,8.4,20.6,15.8,29.2,25.5c6.8,7.7,13.1,18.4,9.7,28.9
	c-0.1,0.3-0.3,0.5-0.6,0.7c3.2,3.1,6.5,6.2,9.9,9.1c12.3,10.4,25.9,19.2,40.5,26c0.3,0.1,0.6,0.4,0.7,0.8
	c14.1-2.3,28.1-4.8,42.1-7.3c27.7-4.8,57.1-8.9,84.7-1.6c-42.6-20.8-80.1-50.6-111.3-86.1c-0.4,0.4-1,0.5-1.5,0.2
	c-6.3-4.1-13.4-6.6-20.6-8.5c-6.4-1.6-12.9-2.8-19.3-4.5c-6.7-1.7-13.4-3.8-19.9-6.2c-12.2-4.2-23.6-10.4-33.8-18.3
	c-0.4,0.2-0.8,0.2-1.1-0.1c-0.1-0.1-0.2-0.1-0.3-0.2c-3.9,5.9-12,7.5-18.7,7.2c-6.7-0.3-13.1-2.7-18.5-6.7
	c-5.6-4.2-9.6-10.1-12.5-16.4c-6.1-13.1-7.8-27.9-15.6-40.2c-0.6-1,0.6-1.9,1.5-1.7c7.6,1.7,15.5,0.7,23.2-0.1
	c6.8-0.7,13.8-1.1,20.5,0.6c7.8,2,14.7,6.9,19.2,13.5c2.2,3.4,3.9,7,5.1,10.9c1.3,3.7,2.2,7.6,2.6,11.5c0.7,6.7-0.6,13.8-5.1,18.9
	c5.7,4.7,12,8.7,18.6,12.1c6,3,12.2,5.6,18.6,7.7c6.5,2.2,13.2,4.3,19.9,5.9c11.7,2.8,23.8,4.7,34.4,10.6c-1.8-2.1-3.5-4.1-5.3-6.3
	c-19.4-23.6-35.4-49.4-51.6-75.2c-5-8-10-15.9-15.1-23.8c-0.1,0-0.3-0.1-0.4-0.2c-3.4-2.3-6.8-4.7-10.4-6.7
	c-3.1-1.8-6.4-3.3-9.9-4.4c-3.5-1-7.1-1.6-10.7-1.7c-7.8-0.5-15.6-0.9-23.4-1.4c0,0.6-0.6,1.1-1.2,1.1l-0.1,0
	c-4.7,7.3-11.3,13.3-19,17.4c-14.8,7.7-32.5,7.7-47.2-0.1c-8.2-4.3-14.3-11.1-20.5-17.8c-6.7-7.3-14.5-13.6-23-18.6
	c-1.2-0.7-0.3-2.2,0.7-2.2c9.6-0.6,18.5-4.3,27.6-7c30-8.5,62.2,0.9,82.8,24.3c0.1,0.1,0.2,0.3,0.3,0.5l13.2,0.8
	c7.6,0.5,15.6,0.4,22.9,2.9c5.4,2,10.4,4.7,15.1,8c-10.4-16-21.1-31.9-32.5-47.2c-0.3,0.2-0.6,0.2-0.9,0.1
	c-8.7-2.9-16.7-7.4-23.8-13.2C93.5,91.6,84.6,76.8,83.3,60.3c-0.7-9.5,0.7-19,2.4-28.3c1.9-10.4,4.1-20.8,6.6-31.2
	c0.2-0.6,0.9-1,1.5-0.8c0,0,0,0,0,0c8.7,3.6,16.4,9.2,22.7,16.2c11.3,12.6,17.9,28.8,20,45.5c2.2,16.9,0.4,34-3.2,50.6
	c19.9,26.8,37.7,55,55.4,83.2c4.6,7.3,9.2,14.6,13.9,21.8c-0.5-1.6-1-3.2-1.4-4.8c-0.7-2.4-1.2-4.9-1.4-7.4
	c-0.3-2.7-0.3-5.5-0.3-8.2c-0.1-10.1,0.4-20.1,0.8-30.1c0.4-9.5,0.6-19.2-0.7-28.7c-0.6-4.7-2-9.4-3-14.1c-0.5-2.5-1.1-5-1.5-7.6
	c-0.2-0.8-0.3-1.7-0.4-2.5c-0.2-0.2-0.3-0.5-0.3-0.8c-0.1-1.1-0.1-2.2,0-3.3c-4.2-5.6-7.5-11.9-9.6-18.6c-4.1-13-4.1-26.9-1.2-40.1
	c3.4-15.3,10.7-29.5,19.4-42.5c0.4-0.6,1.2-0.7,1.7-0.3c0.2,0.1,0.3,0.3,0.4,0.4c4.7,7.8,9,15.7,12.8,23.9c6,13.4,9.7,28.3,6.9,42.9
	c-1.5,7.6-4.8,14.7-9.6,20.7c-5.2,6.4-11.2,12-18,16.7c0,0.1,0,0.1,0,0.2c0,0.1,0,0.2,0,0.3c0,0.3,0,0.3,0,0.3c0,0.2,0,0.4,0.1,0.6
	c0.1,1.2,0.4,2.3,0.6,3.4c0.6,3,1.2,6,1.9,9c1.3,5.1,2.2,10.3,2.7,15.6c0.6,9.3,0.6,18.7,0,28.1c-0.1,1.7-0.2,3.5-0.2,5.2
	c1-2.8,2.2-5.6,3.5-8.3c2-4,4.2-7.9,6.6-11.6c2.5-3.8,5.3-7.4,7.7-11.2c4.2-6.8,7.5-14.1,9.8-21.7c0,0-0.1,0-0.1,0
	c-6-2.6-9.2-8.7-10-15c-1.7-13.1,5.9-25.8,13.8-35.6c9.3-11.4,20.8-21,28.3-33.8c0.4-0.6,1.2-0.7,1.7-0.3c0.3,0.2,0.5,0.6,0.5,1
	c-0.5,4.3,0.4,8.4,1.6,12.5c1.2,4.1,2.5,8.2,3.6,12.4c3.9,14.5,5.6,30.7-2.5,44.2c-3.7,6.3-9.5,11.1-16.4,13.4
	c-5.9,1.8-12.1,2.2-18.2,1.2c-1.3,4.2-2.8,8.3-4.6,12.3c-1.7,4-3.8,7.7-6.2,11.4c-2.5,3.8-5.3,7.4-7.7,11.2
	c-4.8,7.5-8.9,15.6-11.1,24.3c-0.1,0.4-0.4,0.7-0.8,0.8c-0.2,5.8-0.2,11.7-0.1,17.5c0.1,4.4,0.8,8.8,2.1,13
	c1.1,3.6,2.3,7.1,3.2,10.6c10.3,15.8,21.5,30.9,33.6,45.3c18.7,22.1,40,41.9,63.4,59.1c3.7,2.7,7.5,5.3,11.4,7.9
	c-5.1-6.1-9.3-13-12.2-20.4c-4-9.4-6.7-19.3-9.3-29.2c-1.2-4.6-2.4-9.2-3.8-13.8c-1.4-4.7-2.9-9.3-4.1-14.1
	c-4.8-18.9-7.9-39.6-20.4-55.3c-0.3,0.1-0.7,0-0.9-0.2c-0.2,0.2-0.5,0.4-0.9,0.4c-5.6-0.1-11.2-1-16.6-2.7c-4.7-1.5-9.1-4-12.7-7.2
	c-3.4-3.2-6.2-7-8.2-11.1c-4.6-9.1-5.9-19.3-7.2-29.3c-0.1-0.7,0.3-1.3,1-1.4c0.1,0,0.2,0,0.3,0c7.5,0.8,14.8,2.2,22.1,4.1
	c11.7,3.4,23.7,9.9,29.5,21.1c2.5,4.6,3.4,9.8,2.6,14.9c-0.8,4-3.1,8.4-7,9.9c6.7,8.5,10.9,18.5,13.9,28.8
	c2.9,9.8,4.9,19.9,7.5,29.7c1.2,4.6,2.7,9.1,4,13.6c1.4,4.7,2.6,9.5,3.9,14.2c2.7,9.9,5.5,19.7,9.7,29.1c4,8.8,9.3,17.3,17,23.3
	c0.3,0.3,0.5,0.7,0.5,1.1c16.7,10.4,34.3,19.2,52.6,26.4c0.6,0.2,1.2,0.4,1.8,0.6c0.2,0.1,0.4,0.2,0.5,0.3
	c27.5,10.6,56.2,17.8,85.5,21.3c2.5,0.3,2.3,4.2-0.2,3.9c-32.5-3.8-64.4-12.1-94.7-24.6c-0.3,0.3-0.7,0.4-1.2,0.3
	c-3.8-0.8-7.6-1.5-11.2-2.6c-0.1,0-0.2-0.1-0.2-0.1c-0.2,0-0.4,0-0.6-0.1c-16.8-5.3-34.7-5.9-52.2-4.5c-15.4,1.3-30.7,4-45.9,6.7
	c-14.9,2.7-29.9,5-44.8,7.2c-31.7,4.7-64.9,9.4-96.4,1.4c-6.7,5.3-15,8.1-23.4,9.1c-8.3,1-16.7,0.4-24.9-0.7
	c-8.3-1.1-16.5-3.3-22.9-9c-6.3-5.6-10.1-13.3-14.2-20.6c-4.2-7.4-9.3-15.1-17.3-18.7c-1.4-0.6-0.7-2.9,0.8-2.3
	c7.7,3.5,16.1,4,24.4,3.7c7.6-0.2,15.1-1,22.7-0.7c7.8,0.3,15.5,2,22.7,5c14.3,6,26.2,16.7,33.5,30.4c18.4,4.6,37.6,4.7,56.4,3.1
	c16-1.3,31.8-3.5,47.7-6c-3.5-1.7-7-3.5-10.4-5.4c-14.3-8.1-27.5-18-39.2-29.6c0,0,0,0,0,0"/>
</svg>
