<svg xmlns="http://www.w3.org/2000/svg" width="279.278" height="110.023" viewBox="0 0 279.278 110.023"><defs><style>.a{opacity:0.75;}.b{fill:#fff;}</style></defs><g class="a" transform="translate(0.001 -382.968)"><g transform="translate(-0.001 382.968)"><path class="b" d="M251.988,78.936c3.963-.976,7.585-1.884,10.806-2.46v.381c-10.543,2.509-27.743,9.03-48.136,12.222-27,4.969-60.582,5.057-91.839-17.972C74.85,35.778,58.157,31.464,45.027,32.147h-.185c-2.089.117-4.09.361-6.111.615H38.35a77.606,77.606,0,0,1,13.94-2.138c15.619-2.46,30.886.664,79.94,34.684C169.774,91.353,204.467,89.42,230.912,84h.059C238.907,82.245,245.936,80.312,251.988,78.936Z" transform="translate(-0.912 -0.716)"/><path class="b" d="M52.346,12.817c-3.963.976-7.585,1.884-10.806,2.46V14.9C52.1,12.378,69.322,5.857,89.734,2.665c26.982-4.959,60.523-5.027,91.761,17.981,47.96,35.318,64.662,39.643,77.782,38.96h.176c2.089-.117,4.09-.361,6.111-.615h.381a77.891,77.891,0,0,1-13.862,2.128c-15.619,2.47-30.867-.6-80.047-34.674C134.551.391,99.828,2.323,73.412,7.741h-.059C65.417,9.508,58.36,11.441,52.346,12.817Z" transform="translate(-0.988 -0.003)"/><path class="b" d="M276.895,62.475h.059l-2.528,1.591c-19.163,3.993-33.493,23.428-119.592-10.738C93.206,28.748,55.233,16.369,28.6,32.281A60.758,60.758,0,0,0,13.383,47.588l-.693,1.054C7.741,54.763-.078,73.379,4.617,89.437c3,7,8.454,13.305,17.483,17.571l1.6,3.456A38.793,38.793,0,0,1,12.5,102.645a33.651,33.651,0,0,1-2.587-2.87l.312.283a32.985,32.985,0,0,1-4.988-8.786A29.939,29.939,0,0,0,9.9,99.726C-1.952,88.734-1.669,73.994,3.007,60.552c1.63-6.931,4.3-12.622,6.6-15.473L8.249,46.612C12.788,37.992,18.7,31.676,25.9,27.391c27.87-19.143,76.6-5.418,139.35,19.533C251.358,81.178,247.834,69.3,279.277,60.962Z" transform="translate(0.001 -0.441)"/></g></g></svg>