<?xml version="1.0" encoding="utf-8"?>
<!-- Generator: Adobe Adobe Illustrator 24.2.0, SVG Export Plug-In . SVG Version: 6.00 Build 0)  -->
<svg version="1.1" id="Layer_1" xmlns="http://www.w3.org/2000/svg" xmlns:xlink="http://www.w3.org/1999/xlink" x="0px" y="0px"
	 viewBox="0 0 279.3 110" style="enable-background:new 0 0 279.3 110;" xml:space="preserve">
<style type="text/css">
	.st0{opacity:0.75;}
	.st1{fill:#F7EFDE;}
</style>
<g transform="translate(0.001 -382.968)" class="st0">
	<g transform="translate(-0.001 382.968)">
		<path class="st1" d="M251.1,78.2c4-1,7.6-1.9,10.8-2.5v0.4c-10.5,2.5-27.7,9-48.1,12.2c-27,5-60.6,5.1-91.8-18
			c-48-35.3-64.7-39.6-77.8-39h-0.2c-2.1,0.1-4.1,0.4-6.1,0.6h-0.4c4.6-1.1,9.2-1.8,13.9-2.1c15.6-2.5,30.9,0.7,79.9,34.7
			c37.5,26,72.2,24.1,98.7,18.7h0.1C238,81.5,245,79.6,251.1,78.2z"/>
		<path class="st1" d="M51.4,12.8c-4,1-7.6,1.9-10.8,2.5v-0.4c10.6-2.5,27.8-9,48.2-12.2c27-5,60.5-5,91.8,18
			c48,35.3,64.7,39.6,77.8,39h0.2c2.1-0.1,4.1-0.4,6.1-0.6h0.4c-4.5,1.1-9.2,1.8-13.9,2.1c-15.6,2.5-30.9-0.6-80-34.7
			C133.6,0.4,98.8,2.3,72.4,7.7h-0.1C64.4,9.5,57.4,11.4,51.4,12.8z"/>
		<path class="st1" d="M276.9,62L276.9,62l-2.5,1.6c-19.2,4-33.5,23.4-119.6-10.7c-61.6-24.6-99.6-37-126.2-21
			c-5.9,4.2-11.1,9.3-15.2,15.3l-0.7,1.1C7.7,54.3-0.1,72.9,4.6,89c3,7,8.5,13.3,17.5,17.6l1.6,3.5c-4.2-1.9-8-4.6-11.2-7.8
			c-0.9-0.9-1.8-1.9-2.6-2.9l0.3,0.3c-2.1-2.7-3.8-5.6-5-8.8c1.1,3.1,2.7,5.9,4.7,8.5C-2,88.3-1.7,73.6,3,60.1
			c1.6-6.9,4.3-12.6,6.6-15.5l-1.4,1.5c4.5-8.6,10.5-14.9,17.7-19.2c27.9-19.1,76.6-5.4,139.4,19.5c86.1,34.3,82.6,22.4,114,14
			L276.9,62z"/>
	</g>
</g>
</svg>
