<?xml version="1.0" encoding="utf-8"?>
<!-- Generator: Adobe Adobe Illustrator 24.2.0, SVG Export Plug-In . SVG Version: 6.00 Build 0)  -->
<svg version="1.1" id="Layer_1" xmlns="http://www.w3.org/2000/svg" xmlns:xlink="http://www.w3.org/1999/xlink" x="0px" y="0px"
	 viewBox="0 0 279.3 171.5" style="enable-background:new 0 0 279.3 171.5;" xml:space="preserve">
<style type="text/css">
	.st0{fill:#F7EFDE;}
</style>
<g transform="translate(0 49.441) rotate(-19)">
	<path class="st0" d="M52,78.6c-3-0.3-6-0.5-9-0.6c-0.7-0.1-1.5,0-2.2-0.1c-0.5,0-1.2,0-1.7-0.1c-0.4,0-0.7-0.1-1.2,0
		c-0.7-0.1-1.6-0.1-2.3,0c0.9-1,2-1.9,3.3-2.6c0.3,0,0.7,0.1,1.1,0l0,0c0.2,0.2,0.2,0.4,0.2,0.6c3.5,0.6,7,1.4,10.4,2.4L52,78.6z"/>
	<path class="st0" d="M98.6,12.9c-2-0.4-3.9-0.7-5.9-0.5c-2.2,0.1-4.4-0.1-6.5-0.1c-4.7-0.2-9.5-0.1-14.2,0.2
		c-8.2,0.5-16.3,2.1-24.2,4.6c-6.2,2-12.3,4.5-16.5,9.7c-2.2,2.8-3.8,5.9-4.4,9.5c-0.5,3.6-0.3,7.1,0.8,10.5
		c1.6,5.5,2.9,11.7,6.9,15.9c-3.6,2.2-6.9,5.1-10.5,7.4c-2.8,1.9-5.8,3.4-9.1,4.3c-1.8,0-3.7,0.1-5.5,0.2
		c-6.2,0.5-12.3,1.7-18.2,3.7c-6.5,2.1-12.7,5-19.5,5.7c-1.8,0.2-1.3,2.9,0.4,2.7c7.3-0.8,13.9-3.8,20.8-6.1
		c7.1-2.2,14.4-3.5,21.7-3.6c6.9-0.1,13.8,0.3,20.8,0.5c0.1,0,0.2,0,0.3,0c0.9-1,2-1.9,3.3-2.6c-3.5-0.1-7.1-0.3-10.6-0.3
		c-2.7-0.1-5.6-0.2-8.4-0.2c1.7-0.8,3.3-1.7,4.9-2.8c3.8-2.5,7.1-5.4,11-7.8l0.1,0c0.3,0.3,0.7,0.3,1.1,0l0-0.1
		c1.9,0.9,4,1.3,6.1,1.3c2.5-0.1,5-0.4,7.4-1.1c5.9-1.6,10.8-5.4,15.5-9.1c4.5-3.7,8.8-7.9,12.5-12.3c4-4.5,7.5-9.2,10.7-14.3
		c1.5-2.8,3.2-5.3,4.9-7.9c1.7-2.1,3.7-4,4.8-6.5C99.2,13.6,98.9,13.1,98.6,12.9L98.6,12.9z"/>
	<path class="st0" d="M208.8,19.7c-2.2-0.2-4.4,0-6.5,0.6c-2.2,0.5-4.4,1-6.7,1.3c-4.7,0.8-9.5,1.5-14.2,2.6
		c-7.3,1.7-14.7,4.2-20.8,8.6c-5.9,4.4-10.6,10.1-14,16.6c-3.4,6.4-5.5,13.6-5.1,20.9c0.2,2,0.5,3.9,1.2,5.9
		c0.5,1.6,1.2,3.1,1.7,4.8c0.4,1.4,0.8,2.9,1.4,4.3c0.3,0.7,0.6,1.5,1,2.1c-1.1,0.9-2.3,1.6-3.6,2.1c-3.9,1.8-8.1,2.9-12.3,3.4
		c-3.4,0.4-6.8,0.7-10.3,0.8c-12-2.8-23.3-7.2-35.1-11.1c-1.2-0.4-2.4-0.8-3.5-1.1c5.7-0.8,11.2-2.6,16.2-5.4c0,0.2,0.1,0.5,0.3,0.6
		c2.2,1.8,5.6,1.9,8.3,1.9c2.1,0.1,4.2,0.1,6.3,0c2-0.1,4-0.6,5.8-1.3c6-2.3,10.7-7,15.1-11.7c4.1-4.4,7.2-9.6,9.2-15.2
		c2.2-5.7,3.3-11.7,3.4-17.9c0-3.2-0.4-6.3-0.6-9.4c-0.1-1.7,0-3.4,0.1-5c-0.1-1.5,0.1-3.2,0.6-4.6c0.2-0.5-0.1-1-0.6-1.1
		c-0.4-0.1-0.7-0.1-1,0.3c-1.2,1.2-2.7,2.4-4.2,3.2c-1.5,0.9-3.2,1.8-4.9,2.4c-1.9,0.9-3.9,1.5-5.9,2.2c-2,0.8-4.1,1.7-6,2.5
		c-3.6,1.5-7.2,3.1-10.8,4.9c-3.3,1.5-6.6,3-9.4,5.4c-2.6,2.2-4.7,4.8-6.6,7.7c-1.9,2.7-3.4,5.6-4.4,8.8c-1.9,6-2.5,12.9,0.1,18.7
		c0.7,1.7,1.6,3.4,2.6,5c0.3,0.6,0.7,1,1.1,1.5c-0.3,0.2-0.6,0.3-0.9,0.5c-6.2,3-13.1,5.2-20.1,4.4c-9-2.2-18.2-3.6-27.5-4.1
		c-2.8-0.2-5.6-0.3-8.4-0.4c0.2,0.2,0.2,0.4,0.2,0.6c3.5,0.6,7,1.4,10.4,2.4l1.4,0.4c1.1,0.1,2.3,0.2,3.3,0.3
		c13.2,1.3,25.5,4.8,37.8,9.2c7.5,2.7,15.2,5.2,22.9,7.2c-0.2,0.2-0.2,0.7,0.1,0.9c1.8,2.2,3.2,4.7,4.3,7.2l0,0
		c-0.2,0-0.4,0.1-0.5,0.1c-5.4,3.6-8.4,9.8-9.3,16.1c-1,5.8-0.1,11.9,2.5,17.1c3,5.9,8.6,10.3,14.2,13.4c6.4,3.6,13.6,5.9,21,6.8
		c3.9,0.4,7.9,0.4,11.8,0.2c4.3-0.2,8.4-1.4,12.3-3.2c0.4-0.2,0.6-0.7,0.4-1.1c-0.1-0.1-0.1-0.3-0.3-0.3c-2.4-1.7-3.5-4.3-4.1-7
		c-0.6-3-0.9-6-1.1-9.1c-0.6-6.5-1.8-13-4.4-18.8c-2.1-4.5-5.4-8.3-9.6-10.9c-4.3-2.5-9-4.4-13.8-5.6c-6-1.7-12.5-2.9-18.4-0.1
		c-0.7-1.6-1.5-2.9-2.6-4.4c0.8,0,1.5,0,2.2,0c2.9,0.7,5.7,1.2,8.7,1.7c6.2,1,12.5,1.6,18.7,1.7c6,0.3,11.9,0.8,17.9,0.7
		c0.2,0.2,0.2,0.2,0.4,0.3c6,1.4,10.5,6.4,14.9,10.2c2.2,1.9,4.5,3.7,6.9,5.2c2.7,1.9,5.5,3.6,8.4,5.2c5.9,2.9,12.3,5,18.9,5.8
		c6.5,1,13.2,1.1,19.7,0.2c3.1-0.4,6.2-0.7,9.2-1.3c3-0.5,5.9-1.5,8.5-3.1c0.6-0.4,0.2-1.2-0.2-1.5c-0.3-0.1-0.5-0.3-0.8-0.4
		c-0.1-0.1-0.2-0.2-0.4-0.3l-0.1,0c-2.4-1.8-4.7-3.9-6.5-6.3c-2.2-2.8-4.3-5.7-6.9-8.3c-2.8-2.9-5.6-5.5-8.6-8c-3-2.6-6.1-4.9-9.4-7
		c-5.9-3.4-12.4-5.5-19-6.2c-6.7-0.9-13.7-0.4-20.2,1.2c-3.6,1-7.1,2.8-9.9,5.2c-1.2,1.1-2,2.2-2.9,3.6c-0.6,1-1.3,2.1-2.2,2.9l0,0
		c-7.3,0.3-14.6-0.6-21.9-0.8c-4.3-0.2-8.6-0.6-12.8-1.3c2.8-0.3,5.5-0.9,8.1-1.7c3.5-1,6.8-2.6,9.7-4.9c6.4-3.9,13.5-6.4,20.2-9.6
		c11.2-5,20.6-13.5,26.7-24.3c2.9-5.1,5.5-10.3,7.5-15.9c2.2-6.1,3.1-12.7,6.1-18.6c0.2-0.5-0.1-1-0.5-1.2
		C208.9,19.6,208.8,19.6,208.8,19.7z"/>
	<path class="st0" d="M52,78.6c-3-0.3-6-0.5-9-0.6c-0.7-0.2-1.5-0.4-2.2-0.4c0,0.1,0,0.2,0,0.3c-0.5,0-1.2,0-1.7-0.1
		c0-0.2,0-0.3,0-0.5l0,0c-0.1,0-0.2-0.1-0.3-0.1c-0.3,0.2-0.6,0.4-0.8,0.6c-0.7-0.1-1.6-0.1-2.3,0c0.9-1,2-1.9,3.3-2.6l0.2-0.2
		c0.3-0.2,0.7-0.2,0.9,0.1l0,0c0.2,0.2,0.2,0.4,0.2,0.6c3.5,0.6,7,1.4,10.4,2.4L52,78.6z"/>
	<path class="st0" d="M52,78.6c-3-0.3-6-0.5-9-0.6c-0.7-0.1-1.5,0-2.2-0.1c-0.5,0-1.2,0-1.7-0.1c-0.4,0-0.7-0.1-1.2,0
		c-0.7-0.1-1.6-0.1-2.3,0c-3,3.3-4.4,7.9-5,12.2c-0.8,5.5-0.7,11.1,0.5,16.5c0.8,3.3,2,6.5,3.5,9.5c1.9,3.8,4.1,7.4,6.7,10.8
		c2.6,3.3,5.4,6.4,8.5,9.1c3,2.7,6.4,5.2,9.4,7.9c2.5,2.1,4.7,4.4,7.3,6.4c2.4,1.9,5.1,3.9,8.2,4.4c0.5,0.1,0.9-0.3,0.9-0.7
		c0.4-8,3.8-15.5,4.3-23.4c0.4-6.9-0.7-14-1.8-20.7c-0.8-5.9-2.8-11.5-5.8-16.6c-3-4.8-7.2-8.8-12.3-11.6
		C57.3,80.4,54.7,79.4,52,78.6z"/>
</g>
</svg>
