<?xml version="1.0" encoding="utf-8"?>
<!-- Generator: Adobe Adobe Illustrator 24.2.0, SVG Export Plug-In . SVG Version: 6.00 Build 0)  -->
<svg aria-hidden="true"  version="1.1" id="Layer_1" xmlns="http://www.w3.org/2000/svg" xmlns:xlink="http://www.w3.org/1999/xlink" x="0px" y="0px"
	 viewBox="0 0 482.3 666.7" style="enable-background:new 0 0 482.3 666.7;" xml:space="preserve">
<style type="text/css">
	.st0{fill:#F7EFDE;}
</style>
<path class="st0" d="M406.8,1c1.7,7.2,3,14.4,3.8,21.8c1.1,12.5-0.7,25.8-8.7,35.9c-4,4.9-9.3,8.6-15.4,10.4
	c-5.8,1.9-12.3,3.6-18.4,2.2c-0.1,0-0.1,0-0.1,0c-6.7,7-12.8,14.4-18.4,22.3c-10.8,15.4-19.3,32.4-25.2,50.3
	c-5.3,16-8.5,32.6-9.4,49.4c1.4-2.7,2.9-5.3,4.6-7.8c7.8-11.9,18.2-22,30.3-29.6c0-0.1,0-0.1,0.1-0.2c-0.1-0.1-0.2-0.2-0.2-0.4
	c-0.8-2.8-0.8-5.7,0.1-8.5c0.9-3,2.1-5.9,3.6-8.7c5.6-10.2,14.7-18.2,25.1-23.4c9.8-4.9,20.6-7.4,31.4-8.2c0.6,0,1.1,0.4,1.2,1
	c0,0.1,0,0.2,0,0.2c-1.6,6.7-4,13.3-7.1,19.5c-2.8,5.6-6.1,10.8-10,15.7c-1.9,2.4-4.1,4.7-6.5,6.6c-2.4,1.9-5.1,3.4-7.9,4.7
	c-2.7,1.3-5.6,2.3-8.5,3.3c-2.3,0.8-4.7,1.5-7.2,1.9c-4.3,0.8-9,0.6-12.7-1.9c-15.2,9.4-27.5,22.9-35.5,38.9c0.1,0.2,0.1,0.5,0,0.8
	c-5.7,34.4-7,69.4-3.9,104.2c3.1-2,6.1-4.1,9.1-6.3c12-9.3,22.3-20.7,30.3-33.6c-0.4,0.2-1,0-1.2-0.4c-4-6.2-6.2-13.4-6.6-20.7
	c-0.8-13.8,4-27.4,11.8-38.6c10.2-14.6,24.6-25.5,38.7-36.1c0.5-0.3,1.2-0.2,1.5,0.3c16.4,21.4,17,50.9,1.6,73
	c-10.3,14.2-26.2,23.5-43.7,25.5c-0.5,0.1-1-0.3-1.1-0.7c-1.8,2.8-3.7,5.6-5.7,8.2c-9.5,12.7-21.3,23.5-34.7,31.9
	c0,0.6,0.1,1.2,0.1,1.7c6,64.7,25.1,128.2,52.4,187.1c4.9,10.6,10.2,21,15.9,31.1c-0.5-3.9-0.9-7.7-1.1-11.6
	c-0.4-9.1,0.2-18.3,1.8-27.3c1.4-8.2,3.3-16.3,5.3-24.4c-0.8-0.5-3.5-2-4.4-2.6c-7.9-5.3-13.5-13.4-16.8-22.2
	c-3.3-9.2-4-19.1-2.2-28.7c2.1-10.2,6.3-19.8,12.3-28.3c6.3-9.2,14.3-17.2,23-24.3c9.3-7.6,19.4-14.2,29.4-20.8
	c0.7-0.5,1.9,0.1,1.7,1.1c-0.3,1.2-0.6,2.4-0.8,3.6c-1.7,10.1,1.7,20.2,4.9,29.7c3.2,9.6,6.5,19.3,6.4,29.6
	c-0.1,9.8-2.4,19.4-6.7,28.2c-4.3,8.8-10.4,16.6-17.8,22.9c-7.4,6.3-16.3,10.8-25.8,12.9c-0.4,0.1-0.8,0-1.1-0.3
	c-1,3.9-1.9,7.8-2.8,11.8c-2.1,9-3.5,18.2-4.1,27.5c-0.4,8.9,0.1,17.8,1.6,26.5c0.1,0.3,0,0.7-0.3,0.9c9.6,16.8,20.6,32.7,32.8,47.6
	l2.6,3.1c1.6,1.8,3.1,3.7,4.7,5.5c22.1,24.9,47.5,48.5,59.2,80.5c0.3,0.9-0.2,1.9-1.1,2.2c-0.9,0.3-1.8-0.2-2.1-1
	c-12.8-35-42-59.6-65.5-87.5c-19.7-8.8-40.1-16-61-21.5c-22.2-5.8-44.9-9.8-67.7-11.8c-6.8,1.1-13.6,2.5-20.3,4.3
	c-14.1,3.8-27.8,9.4-39.6,18.2c-2.7,2-5.3,4.2-7.8,6.6c-0.2,0.4-0.4,0.7-0.6,1.1c-0.6,1-1.1,2-1.6,3.1c-1,2-1.9,4.1-2.8,6.2
	c-1.8,4.3-3.8,8.4-6.1,12.4c-7.3,11.8-19.1,20.1-32.7,22.9c-3.3,0.7-6.8,1-10.2,1c-3.3-0.1-6.6-0.4-9.8-0.8
	c-6.4-0.7-13.1-1.3-19.2,1.5c-0.6,0.2-1.2-0.1-1.4-0.7c-0.1-0.2-0.1-0.3,0-0.5c0.7-3.7,3.5-6.4,6-9c2.6-2.7,5.2-5.3,8-7.7
	c10.1-8.9,21.4-16.2,33.6-21.6c6.1-2.7,12.4-5,18.8-6.8c6.7-1.9,13.6-3.2,20-6c0.1,0,0.2-0.1,0.3-0.1c9.1-7.5,19.4-13.4,30.5-17.4
	c8.6-3.1,17.4-5.6,26.4-7.3c-14.1-1-28.3-1.1-42.5-0.6c-20.6,0.8-41.8,2.6-61.7,8.4c-18.7,5.4-35,17-54,21.3c-0.5,0.2-1,0.2-1.5,0.2
	c-3.9,0.2-7.1,1.6-10.6,3.1c-3.1,1.3-6.2,2.8-9.2,4.5c-3.4,1.9-6.9,3.7-10.3,5.7c-2,1.1-3.9,2.3-5.9,3.4c-1.8,2.4-3.7,4.8-5.5,7.2
	c-2,2.6-3.9,5.2-6,7.7c-2.8,3.4-6.5,5.9-10.6,7.3c-3.6,1.1-7.3,1.7-11.1,1.9c-7.4,0.6-15.5,0.5-22,4.6c-0.5,0.3-1.2,0.2-1.5-0.3
	c-0.1-0.2-0.2-0.5-0.2-0.7c1.1-4.7,3.8-9,7.5-12.1c3.5-2.9,7.3-5.2,11.5-6.9c4.3-1.9,8.7-3.6,13.1-5.2c8.8-3.1,17.7-5.6,26.8-7.5
	c0.2-0.1,0.5,0,0.7,0.1c4.6-2.7,9.3-5.2,14-7.7c4.7-2.5,9.5-4.8,14.7-5.9c-3.1-0.3-6.3-0.7-9.4-1.3c-8.2-1.4-16.2-3.6-24-6.6
	c-0.4,0.2-0.9,0-1.2-0.3c-0.1-0.1-0.1-0.1-0.2-0.2c0,0.5-0.4,1-0.9,1c-0.1,0-0.2,0-0.3,0c-8.4-1.8-17.1-1.1-25.6-2.4
	c-26-4.5-46.3-25-50.7-51.1c0-0.6,0.4-1.1,1-1.2c0.2,0,0.3,0,0.5,0.1c7.4,2.6,14.8,5.1,22.2,7.7c6.5,2.3,13.1,4.5,19.6,6.8
	c6.1,2.2,12.2,4.7,17.3,8.8c2.5,1.9,4.7,4.2,6.5,6.8c1.5,2.4,2.9,4.8,4,7.4c2.2,4.9,4.2,10,7.6,14.2c11.8,4.5,24.1,7.2,36.7,8.1
	c0.3-0.1,0.6-0.1,1-0.2c11.6-2.4,22.2-8,32.8-13c10.5-4.9,21.4-8.7,32.8-11.1c1.8-0.4,3.5-0.7,5.3-1.1c-3.3-1.1-6.5-2.2-9.7-3.6
	c-8-3.4-15.7-7.5-22.9-12.5c-0.4,0.4-1,0.5-1.5,0.2c-0.2,0.2-0.4,0.3-0.7,0.3c-42.2,2.6-78.5-29.6-81.1-71.8
	c-0.1-2.4-0.2-4.9-0.1-7.3c0-0.6,0.4-1.1,1.1-1.1c0.3,0,0.5,0.1,0.7,0.2c8,5.4,16.3,10.2,25,14.4c7.7,3.7,15.6,6.7,23.4,10.2
	c7.4,3.3,14.6,7.3,20.5,12.9c5.6,5.2,9.5,11.9,11.2,19.3c1.6,6.7,1.8,13.5,1.8,20.3c11.2,7.8,23.6,13.8,36.8,17.6
	c17.1-2.9,34.6-4,51.9-4.2c19.7-0.3,39.4,0.9,58.9,3.4c12.7,1.7,25.3,3.9,37.8,6.8c-2-0.9-4-1.8-5.9-2.7
	c-14.5-7.1-27.8-16.2-39.5-27.2c-1.3-1.2-2.6-2.5-3.9-3.8c-0.2,0.4-0.6,0.7-1.1,0.6c-24.1-3.8-44.4-20-53.6-42.6
	c-5.3-13.3-6.3-27.9-3-41.9c0.1-0.6,0.7-1,1.3-0.9c0.2,0,0.3,0.1,0.5,0.2l22.6,16c6.7,4.7,13.3,9.4,20,14.1c3.2,2.3,6.5,4.5,9.7,6.9
	c3,2.1,5.8,4.6,8.1,7.4c4.1,5.4,4.8,12.3,3.9,18.8c-1,6.9-3.5,13.5-7.3,19.3c7.6,7.7,16,14.6,25.1,20.6c13.2,8.8,27.7,15.6,43,20
	c0.2,0.1,0.4,0.2,0.5,0.3c16.4,4.6,32.4,10.3,48.1,17c-22.5-28.1-39.5-60.1-53.7-93c-2.6-6-5.1-12-7.5-18.1
	c-5.1-4.1-10-8.3-14.8-12.7c-9.2-8.4-17.9-17.2-26.2-26.6c-6.9-7.9-13.5-16-19.7-24.5c-0.9,0.4-3.6,1.7-4.5,2
	c-7.4,2.2-15.3,2.1-22.6-0.3c-7.5-2.4-14.3-6.6-19.9-12.2c-5.9-5.9-10.3-13.2-12.8-21.1c-2.8-8.8-4-18.1-3.5-27.4
	c0.4-9.3,1.9-18.6,4.3-27.7c0.2-0.7,1.1-1.3,1.7-0.6c6.9,7,15.2,12.3,23.6,17.4c13.7,8.3,28.7,16.9,36.5,31.5
	c5.9,11.1,6.7,26.1-1.8,36c3.2,4.4,6.5,8.8,10,13.1c7.7,9.7,16,18.9,24.7,27.6c7.5,7.5,15.3,14.6,23.4,21.3
	c-9-23-16.6-46.5-22.8-70.5c-4.5-17.6-8.1-35.4-10.9-53.3c-0.1,0-0.2,0-0.3-0.1c-4.1-2.1-7.8-4.8-11-8c-6-5.6-11.7-11.6-17-17.9
	c-4.7-5.5-9.3-11.1-12.7-17.5l0,0c-5.4,4.7-13.4,5.2-19.9,2.8c-7.4-2.7-13-9-16.9-15.6c-3.5-5.8-6.1-12-7.9-18.6
	c-3.4-13.2-3.7-27-0.9-40.3c0.1-0.6,0.7-1,1.3-0.9c0.2,0,0.3,0.1,0.5,0.2c6.4,5.2,13.7,9.1,20.7,13.4c6.3,3.9,12.2,8.3,17.6,13.4
	c4.7,4.4,9.3,9.2,12.4,14.9c2.8,5.1,4.2,10.9,3,16.7c-0.9,5.1-3.9,9.5-8.3,12.2c1.8,3.5,3.9,6.8,6.3,9.9
	c4.9,6.3,10.1,12.4,15.7,18.1c2.8,2.9,5.6,5.7,8.5,8.4c2.6,2.5,5.4,4.6,8.5,6.3c-4.4-29.6-5.8-59.5-4.4-89.4c-0.3,0-0.6-0.2-0.7-0.4
	c-3.5-5.1-6.7-10.4-9.3-16c-4.7-10-7.9-20.5-9.6-31.4c-1.6-10.6-1.7-21.3-0.3-31.9c-0.2,0-0.4,0-0.6-0.1c-8.5-4-13.6-12.5-16.5-21.1
	c-4.5-14-5-29-1.4-43.2c3.4-14.3,10.6-27.3,21-37.7c0.4-0.5,1.1-0.5,1.5-0.1c0.1,0.1,0.2,0.3,0.3,0.4c3.6,8.8,7.4,17.5,10.9,26.3
	c3,7.1,5.4,14.5,7.2,22c1.6,7.4,2.1,15,1.5,22.5c-0.6,7.4-2.1,15.1-6.1,21.5c-3.5,5.5-9.1,9.9-15.7,10.8c-0.7,5.4-1,10.9-0.8,16.4
	c0.3,10.8,2.1,21.4,5.5,31.7c3.2,9.7,7.7,19,13.4,27.5c0.8-14.1,2.4-28.1,4.8-42c0-0.3,0.1-0.5,0.3-0.8c0.4-9.4,1.5-18.9,3.2-28.1
	c3.6-18.7,9.9-36.8,18.7-53.6c8.4-16.2,19.1-31.1,31.8-44.3c0.1,0.1,0.1,0.3,0.2,0.4c0.6,1.2,2.6,0.5,2-0.7
	c-0.2-0.4-0.4-0.9-0.6-1.3c-0.5,0.5-1.1,1.1-1.6,1.6c-2.7-6.1-4.1-12.7-4.2-19.4c0.2-11.2,4.3-21.9,11.6-30.3
	c8.2-9.6,19.5-16.1,31.5-19.8c0.6-0.2,1.2,0.1,1.4,0.7C406.8,0.8,406.8,0.9,406.8,1z"/>
</svg>
