<?xml version="1.0" encoding="utf-8"?>
<!-- Generator: Adobe Adobe Illustrator 24.2.0, SVG Export Plug-In . SVG Version: 6.00 Build 0)  -->
<svg aria-hidden="true"  version="1.1" id="Layer_1" xmlns="http://www.w3.org/2000/svg" xmlns:xlink="http://www.w3.org/1999/xlink" x="0px" y="0px"
	 viewBox="0 0 496.7 496.9" style="enable-background:new 0 0 496.7 496.9;" xml:space="preserve">
<style type="text/css">
	.st0{fill:#F7EFDE;}
</style>
<path class="st0" d="M112.1,322.6c2.3,7.1,6,13.6,11.1,19.1c9.3,10.2,21.7,16.9,34.6,20.8c13.4,4.1,27.2,5.5,41,6.9
	c1.3,0.1,2-1.8,0.8-2.5c-7.2-4.1-13.9-9-20-14.6c-10.9-9.8-20.8-20.8-33-29.1c-9.6-6.6-22.4-12.2-33.5-6.9c-0.3,0.1-0.5,0.4-0.7,0.7
	c-4-3.1-7.9-6.4-11.6-9.8c-13.5-12.3-25.4-26.3-35.3-41.6c-0.2-0.3-0.6-0.6-1-0.6c0.2-16,0.8-32,1.2-47.9
	c0.9-31.5,0.6-64.7-11.9-94.5C83.6,167.1,122.6,204.9,167,235c-0.4,0.5-0.4,1.2,0.1,1.7c5.6,6.5,9.5,14,12.7,21.9
	c2.8,6.9,5.2,14,8,20.9c3,7.3,6.4,14.4,10,21.3c6.7,13,15.3,24.9,25.7,35.2c-0.2,0.4,0,0.9,0.3,1.3c0.1,0.1,0.2,0.2,0.3,0.3
	c-5.9,5.1-6.4,14.3-4.9,21.8c1.5,7.4,5.1,14.3,10.4,19.7c5.6,5.7,12.7,9.3,20.1,11.8c15.4,5.1,32.1,5,47,12.1c1.2,0.6,2-0.9,1.6-1.9
	c-3.2-8.3-3.2-17.2-3.7-25.9c-0.4-7.7-1-15.5-4-22.7c-3.5-8.5-9.9-15.4-18.1-19.6c-4.1-2-8.4-3.4-12.9-4.3c-4.3-1-8.7-1.4-13.1-1.4
	c-7.5,0.1-15.2,2.5-20.1,8.1c-6.1-5.8-11.6-12.2-16.4-19.1c-4.3-6.3-8.2-12.9-11.5-19.7c-3.5-7-6.9-14.1-9.7-21.4
	c-5-12.7-9.1-25.9-17.3-36.9c2.6,1.7,5.2,3.4,7.8,5c29.2,18.5,60.3,32.9,91.5,47.5c9.6,4.5,19.2,9,28.8,13.7
	c0.1,0.1,0.2,0.3,0.3,0.4c3.1,3.5,6.3,7,9.1,10.7c2.5,3.2,4.7,6.7,6.5,10.4c1.7,3.8,2.9,7.7,3.6,11.7c1.8,8.6,3.6,17.2,5.4,25.9
	c-0.7,0.1-1.2,0.8-1.1,1.5l0,0.1c-7.3,6.3-12.9,14.3-16.2,23.4c-6.3,17.4-3.1,37.3,7.8,52.6c6.1,8.5,14.6,14.5,23,20.5
	c9.2,6.5,17.4,14.3,24.4,23.2c0.9,1.2,2.4,0.1,2.3-1.1c-0.9-10.7,1.8-21.2,3.2-31.7c2.3-17.1-0.3-34.4-7.5-50
	c-7.1-15.8-18.4-29.3-32.8-39c-0.2-0.1-0.4-0.2-0.6-0.2l-3-14.6c-1.8-8.4-2.9-17.3-7-25.1c-3.1-5.7-6.9-11-11.3-15.8
	c19.4,9.5,38.7,19.3,57.5,30c-0.1,0.3-0.1,0.7,0.1,1c4.6,9.3,10.9,17.7,18.5,24.7c13.6,12.6,31.4,20.6,49.8,19.8
	c10.6-0.4,20.9-3.3,30.9-6.5c11.2-3.5,22.3-7.4,33.4-11.5c0.7-0.3,0.9-1.1,0.6-1.8c0,0,0,0,0,0c-5.4-9.2-12.8-17.1-21.6-23.1
	c-15.7-11-34.7-16.1-53.5-16.3c-19-0.2-37.7,4.1-55.4,10.3c-32.8-18.6-66.9-34.7-101-50.7c-8.8-4.1-17.6-8.3-26.3-12.6
	c1.8,0.3,3.7,0.7,5.5,1c2.8,0.4,5.6,0.6,8.4,0.6c3.1-0.1,6.1-0.4,9.1-0.8c11.1-1.3,22.1-3.1,33.2-4.9c10.5-1.7,21.1-3.2,31.8-3
	c5.3,0.1,10.7,0.9,16,1.5c2.9,0.3,5.7,0.5,8.6,0.7c1,0.1,1.9,0.1,2.9,0.1c0.3,0.2,0.6,0.3,0.9,0.3c1.2-0.1,2.4-0.2,3.7-0.4
	c6.8,4,14.3,6.8,22.1,8.2c15,2.9,30.4,1,44.5-4c16.4-5.8,30.9-15.8,43.8-27.2c0.6-0.5,0.6-1.4,0-2c-0.1-0.2-0.3-0.3-0.5-0.3
	c-9.4-4-18.8-8.1-28.5-11.1c-15.8-4.9-32.8-7-48.6-2c-8.1,2.7-15.4,7.3-21.4,13.4c-6.4,6.5-11.3,14.2-15.6,22.2
	c-0.1,0-0.2,0-0.2,0.1c-0.1,0-0.2,0-0.4,0.1c-0.3,0-0.3,0-0.4,0c-0.2,0-0.4,0-0.6,0c-1.3,0-2.6-0.1-3.9-0.2
	c-3.4-0.2-6.8-0.6-10.3-0.9c-5.9-0.7-11.8-1.1-17.7-1c-10.4,0.4-20.8,2-31,3.7c-1.9,0.3-3.8,0.6-5.7,0.9c2.9-1.5,5.8-3.2,8.6-5
	c4.1-2.7,8-5.7,11.7-8.9c3.8-3.3,7.3-6.9,11.1-10.1c6.7-5.8,14.4-10,22.4-13.8c0,0,0,0.1,0.1,0.1c3.8,6.4,11.1,9.1,18.2,9.2
	c14.8,0.1,27.5-9.9,37.1-20.1c11.1-11.8,19.8-25.9,32.7-36c0.6-0.5,0.6-1.4,0-2c-0.3-0.3-0.8-0.5-1.2-0.4c-4.6,1.1-9.4,0.6-14.1-0.1
	c-4.8-0.8-9.5-1.7-14.3-2.4c-16.7-2.4-34.8-2.2-48.5,8.6c-6.4,4.9-10.7,12.1-12.1,20c-1.1,6.8-0.5,13.8,1.6,20.4
	c-4.4,2-8.7,4.2-12.9,6.7c-4.1,2.5-7.9,5.3-11.5,8.4c-3.8,3.3-7.3,6.9-11.1,10.1c-7.5,6.4-15.8,12-25,15.6c-0.4,0.1-0.7,0.5-0.8,1
	c-6.4,1-12.9,1.8-19.3,2.5c-4.9,0.5-9.9,0.3-14.7-0.6c-4.1-0.7-8.2-1.6-12.3-2.2c-19.1-9.4-37.7-19.9-55.5-31.4
	c-27.5-18-52.9-39-75.6-62.8c-3.6-3.8-7.1-7.7-10.6-11.6c7.6,4.9,15.8,8.6,24.6,10.9c11.1,3.2,22.4,4.9,33.8,6.5
	c5.3,0.8,10.6,1.5,15.9,2.4c5.4,0.9,10.8,1.9,16.2,2.7c21.7,2.9,45.1,3.6,64.5,15.4c-0.1,0.4,0.1,0.7,0.4,1c-0.2,0.3-0.3,0.7-0.2,1
	c1,6.3,3,12.4,5.7,18.1c2.4,5.1,5.8,9.6,10.1,13.2c4.1,3.4,8.7,6,13.7,7.7c10.8,3.9,22.3,4,33.6,4.1c0.7,0.1,1.4-0.5,1.4-1.2
	c0-0.1,0-0.2,0-0.4c-2.3-8.1-4.7-16.3-8.2-24.1c-5.6-12.6-14.8-25.1-28.1-30.1c-5.4-2-11.4-2.6-16.9-0.9c-4.3,1.4-8.8,4.6-9.8,9.2
	c-10.4-6.3-22.2-9.6-34.1-11.7c-11.3-2-22.7-2.8-34.1-4.4c-5.3-0.7-10.5-1.8-15.7-2.7c-5.4-0.9-10.9-1.6-16.4-2.4
	c-11.3-1.7-22.7-3.5-33.7-6.9c-10.4-3.2-20.6-8-28.6-15.8c-0.3-0.3-0.8-0.5-1.3-0.4C66.8,134.5,54.1,116,43.2,96.6
	c-0.3-0.7-0.6-1.3-1-2c-0.1-0.2-0.3-0.4-0.4-0.5C25.6,65,13,33.9,4.3,1.7c-0.7-2.7-5-2-4.3,0.7c9.5,35.8,23.8,70.2,42.5,102.2
	c-0.3,0.4-0.3,0.9-0.1,1.3c1.5,4.1,2.9,8.2,4.7,12.2c0,0.1,0.1,0.2,0.1,0.3c0,0.2,0.1,0.4,0.2,0.6c8.6,18.1,12.2,37.8,13.5,57.5
	c1.1,17.4,0.6,34.7,0,52.1c-0.6,17-0.7,33.9-0.7,50.9c0,35.9,0.1,73.5,14.1,107.6c-4.7,8.1-6.5,17.7-6.3,27.2
	c0.2,9.4,2.2,18.7,4.8,27.7c2.6,9.1,6.3,18,13.7,24.3c7.2,6.2,16.4,9.5,25,13.1c8.8,3.7,18.2,8.3,23.4,16.8c0.9,1.5,3.4,0.4,2.4-1.1
	c-5.1-8.1-7-17.4-8.1-26.7c-1-8.5-1.4-17-2.9-25.4c-1.6-8.7-4.7-17-9.2-24.6c-8.9-15.2-22.7-26.9-39.1-33.3
	c-8.1-19.9-11.3-41.3-12.6-62.4c-1.1-17.9-1.3-35.9-1.1-53.9c2.5,3.7,5,7.4,7.7,10.9c11.3,14.9,24.4,28.3,39.1,39.8c0,0,0,0,0,0"/>
</svg>
