<?xml version="1.0" encoding="utf-8"?>
<!-- Generator: Adobe Adobe Illustrator 24.2.0, SVG Export Plug-In . SVG Version: 6.00 Build 0)  -->
<svg version="1.1" id="Layer_1" xmlns="http://www.w3.org/2000/svg" xmlns:xlink="http://www.w3.org/1999/xlink" x="0px" y="0px"
	 viewBox="0 0 666.6 482.6" style="enable-background:new 0 0 666.6 482.6;" xml:space="preserve">
<style type="text/css">
	.st0{fill:#F7EFDE;}
</style>
<path class="st0" d="M0.7,407.2c7.2,1.7,14.4,3,21.8,3.8c12.5,1.1,25.8-0.7,35.9-8.7c4.9-4,8.6-9.3,10.4-15.4
	c1.9-5.8,3.6-12.3,2.2-18.4c0-0.1,0-0.1,0-0.1c7-6.7,14.4-12.8,22.3-18.4c15.4-10.8,32.4-19.3,50.3-25.2c16-5.3,32.6-8.5,49.4-9.4
	c-2.7,1.4-5.3,2.9-7.8,4.6c-11.9,7.8-22,18.2-29.6,30.3c-0.1,0-0.1,0-0.2,0.1c-0.1-0.1-0.2-0.2-0.4-0.2c-2.8-0.8-5.7-0.8-8.5,0.1
	c-3,0.9-5.9,2.1-8.7,3.6c-10.2,5.6-18.2,14.7-23.4,25.1c-4.9,9.8-7.4,20.6-8.2,31.4c0,0.6,0.4,1.1,1,1.2c0.1,0,0.2,0,0.2,0
	c6.7-1.6,13.3-4,19.5-7.1c5.6-2.8,10.8-6.1,15.7-10c2.4-1.9,4.7-4.1,6.6-6.5c1.9-2.4,3.4-5.1,4.7-7.9c1.3-2.7,2.3-5.6,3.3-8.5
	c0.8-2.3,1.5-4.7,1.9-7.2c0.8-4.3,0.6-9-1.9-12.7c9.4-15.2,22.9-27.5,38.9-35.5c0.2,0.1,0.5,0.1,0.8,0c34.4-5.7,69.4-7,104.2-3.9
	c-2,3.1-4.1,6.1-6.3,9.1c-9.3,12-20.7,22.3-33.6,30.3c0.2-0.4,0-1-0.4-1.2c-6.2-4-13.4-6.2-20.7-6.6c-13.8-0.8-27.4,4-38.6,11.8
	c-14.6,10.2-25.5,24.6-36.1,38.7c-0.3,0.5-0.2,1.2,0.3,1.5c21.4,16.4,50.9,17,73,1.6c14.2-10.3,23.5-26.2,25.5-43.7
	c0.1-0.5-0.3-1-0.7-1.1c2.8-1.8,5.6-3.7,8.2-5.7c12.7-9.5,23.5-21.3,31.9-34.7c0.6,0,1.2,0.1,1.7,0.1c64.7,6,128.2,25.1,187.1,52.4
	c10.6,4.9,21,10.2,31.1,15.9c-3.9-0.5-7.7-0.9-11.6-1.1c-9.1-0.4-18.3,0.2-27.3,1.8c-8.2,1.4-16.3,3.3-24.4,5.3
	c-0.5-0.8-2-3.5-2.6-4.4c-5.3-7.9-13.4-13.5-22.2-16.8c-9.2-3.3-19.1-4-28.7-2.2c-10.2,2.1-19.8,6.3-28.3,12.3
	c-9.2,6.3-17.2,14.3-24.3,23c-7.6,9.3-14.2,19.4-20.8,29.4c-0.5,0.7,0.1,1.9,1.1,1.7c1.2-0.3,2.4-0.6,3.6-0.8
	c10.1-1.7,20.2,1.7,29.7,4.9c9.6,3.2,19.3,6.5,29.6,6.4c9.8-0.1,19.4-2.4,28.2-6.7c8.8-4.3,16.6-10.4,22.9-17.8s10.8-16.3,12.9-25.8
	c0.1-0.4,0-0.8-0.3-1.1c3.9-1,7.8-1.9,11.8-2.8c9-2.1,18.2-3.5,27.5-4.1c8.9-0.4,17.8,0.1,26.5,1.6c0.3,0.1,0.7,0,0.9-0.3
	c16.8,9.6,32.7,20.6,47.6,32.8l3.1,2.6c1.8,1.6,3.7,3.1,5.5,4.7c24.9,22.1,48.5,47.5,80.5,59.2c0.9,0.3,1.9-0.2,2.2-1.1
	s-0.2-1.8-1-2.1c-35-12.8-59.6-42-87.5-65.5c-8.8-19.7-16-40.1-21.5-61c-5.8-22.2-9.8-44.9-11.8-67.7c1.1-6.8,2.5-13.6,4.3-20.3
	c3.8-14.1,9.4-27.8,18.2-39.6c2-2.7,4.2-5.3,6.6-7.8c0.4-0.2,0.7-0.4,1.1-0.6c1-0.6,2-1.1,3.1-1.6c2-1,4.1-1.9,6.2-2.8
	c4.3-1.8,8.4-3.8,12.4-6.1c11.8-7.3,20.1-19.1,22.9-32.7c0.7-3.3,1-6.8,1-10.2c-0.1-3.3-0.4-6.6-0.8-9.8c-0.7-6.4-1.3-13.1,1.5-19.2
	c0.2-0.6-0.1-1.2-0.7-1.4c-0.2-0.1-0.3-0.1-0.5,0c-3.7,0.7-6.4,3.5-9,6c-2.7,2.6-5.3,5.2-7.7,8c-8.9,10.1-16.2,21.4-21.6,33.6
	c-2.7,6.1-5,12.4-6.8,18.8c-1.9,6.7-3.2,13.6-6,20c0,0.1-0.1,0.2-0.1,0.3c-7.5,9.1-13.4,19.4-17.4,30.5c-3.1,8.6-5.6,17.4-7.3,26.4
	c-1-14.1-1.1-28.3-0.6-42.5c0.8-20.6,2.6-41.8,8.4-61.7c5.4-18.7,17-35,21.3-54c0.2-0.5,0.2-1,0.2-1.5c0.2-3.9,1.6-7.1,3.1-10.6
	c1.3-3.1,2.8-6.2,4.5-9.2c1.9-3.4,3.7-6.9,5.7-10.3c1.1-2,2.3-3.9,3.4-5.9c2.4-1.8,4.8-3.7,7.2-5.5c2.6-2,5.2-3.9,7.7-6
	c3.4-2.8,5.9-6.5,7.3-10.6c1.1-3.6,1.7-7.3,1.9-11.1c0.6-7.4,0.5-15.5,4.6-22c0.3-0.5,0.2-1.2-0.3-1.5c-0.2-0.1-0.5-0.2-0.7-0.2
	c-4.7,1.1-9,3.8-12.1,7.5c-2.9,3.5-5.2,7.3-6.9,11.5c-1.9,4.3-3.6,8.7-5.2,13.1c-3.1,8.8-5.6,17.7-7.5,26.8c-0.1,0.2,0,0.5,0.1,0.7
	c-2.7,4.6-5.2,9.3-7.7,14s-4.8,9.5-5.9,14.7c-0.3-3.1-0.7-6.3-1.3-9.4c-1.4-8.2-3.6-16.2-6.6-24c0.2-0.4,0-0.9-0.3-1.2
	c-0.1-0.1-0.1-0.1-0.2-0.2c0.5,0,1-0.4,1-0.9c0-0.1,0-0.2,0-0.3c-1.8-8.4-1.1-17.1-2.4-25.6c-4.5-26-25-46.3-51.1-50.7
	c-0.6,0-1.1,0.4-1.2,1c0,0.2,0,0.3,0.1,0.5c2.6,7.4,5.1,14.8,7.7,22.2c2.3,6.5,4.5,13.1,6.8,19.6c2.2,6.1,4.7,12.2,8.8,17.3
	c1.9,2.5,4.2,4.7,6.8,6.5c2.4,1.5,4.8,2.9,7.4,4c4.9,2.2,10,4.2,14.2,7.6c4.5,11.8,7.2,24.1,8.1,36.7c-0.1,0.3-0.1,0.6-0.2,1
	c-2.4,11.6-8,22.2-13,32.8c-4.9,10.5-8.7,21.4-11.1,32.8c-0.4,1.8-0.7,3.5-1.1,5.3c-1.1-3.3-2.2-6.5-3.6-9.7
	c-3.4-8-7.5-15.7-12.5-22.9c0.4-0.4,0.5-1,0.2-1.5c0.2-0.2,0.3-0.4,0.3-0.7c2.6-42.2-29.6-78.5-71.8-81.1c-2.4-0.1-4.9-0.2-7.3-0.1
	c-0.6,0-1.1,0.4-1.1,1.1c0,0.3,0.1,0.5,0.2,0.7c5.4,8,10.2,16.3,14.4,25c3.7,7.7,6.7,15.6,10.2,23.4c3.3,7.4,7.3,14.6,12.9,20.5
	c5.2,5.6,11.9,9.5,19.3,11.2c6.7,1.6,13.5,1.8,20.3,1.8c7.8,11.2,13.8,23.6,17.6,36.8c-2.9,17.1-4,34.6-4.2,51.9
	c-0.3,19.7,0.9,39.4,3.4,58.9c1.7,12.7,3.9,25.3,6.8,37.8c-0.9-2-1.8-4-2.7-5.9c-7.1-14.5-16.2-27.8-27.2-39.5
	c-1.2-1.3-2.5-2.6-3.8-3.9c0.4-0.2,0.7-0.6,0.6-1.1c-3.8-24.1-20-44.4-42.6-53.6c-13.3-5.3-27.9-6.3-41.9-3c-0.6,0.1-1,0.7-0.9,1.3
	c0,0.2,0.1,0.3,0.2,0.5l16,22.6c4.7,6.7,9.4,13.3,14.1,20c2.3,3.2,4.5,6.5,6.9,9.7c2.1,3,4.6,5.8,7.4,8.1c5.4,4.1,12.3,4.8,18.8,3.9
	c6.9-1,13.5-3.5,19.3-7.3c7.7,7.6,14.6,16,20.6,25.1c8.8,13.2,15.6,27.7,20,43c0.1,0.2,0.2,0.4,0.3,0.5c4.6,16.4,10.3,32.4,17,48.1
	c-28.1-22.5-60.1-39.5-93-53.7c-6-2.6-12-5.1-18.1-7.5c-4.1-5.1-8.3-10-12.7-14.8c-8.4-9.2-17.2-17.9-26.6-26.2
	c-7.9-6.9-16-13.5-24.5-19.7c0.4-0.9,1.7-3.6,2-4.5c2.2-7.4,2.1-15.3-0.3-22.6c-2.4-7.5-6.6-14.3-12.2-19.9
	c-5.9-5.9-13.2-10.3-21.1-12.8c-8.8-2.8-18.1-4-27.4-3.5c-9.3,0.4-18.6,1.9-27.7,4.3c-0.7,0.2-1.3,1.1-0.6,1.7
	c7,6.9,12.3,15.2,17.4,23.6c8.3,13.7,16.9,28.7,31.5,36.5c11.1,5.9,26.1,6.7,36-1.8c4.4,3.2,8.8,6.5,13.1,10
	c9.7,7.7,18.9,16,27.6,24.7c7.5,7.5,14.6,15.3,21.3,23.4c-23-9-46.5-16.6-70.5-22.8c-17.6-4.5-35.4-8.1-53.3-10.9
	c0-0.1,0-0.2-0.1-0.3c-2.1-4.1-4.8-7.8-8-11c-5.6-6-11.6-11.7-17.9-17c-5.5-4.7-11.1-9.3-17.5-12.7l0,0c4.7-5.4,5.2-13.4,2.8-19.9
	c-2.7-7.4-9-13-15.6-16.9c-5.8-3.5-12-6.1-18.6-7.9c-13.2-3.4-27-3.7-40.3-0.9c-0.6,0.1-1,0.7-0.9,1.3c0,0.2,0.1,0.3,0.2,0.5
	c5.2,6.4,9.1,13.7,13.4,20.7c3.9,6.3,8.3,12.2,13.4,17.6c4.4,4.7,9.2,9.3,14.9,12.4c5.1,2.8,10.9,4.2,16.7,3
	c5.1-0.9,9.5-3.9,12.2-8.3c3.5,1.8,6.8,3.9,9.9,6.3c6.3,4.9,12.4,10.1,18.1,15.7c2.9,2.8,5.7,5.6,8.4,8.5c2.5,2.6,4.6,5.4,6.3,8.5
	c-29.6-4.4-59.5-5.8-89.4-4.4c0-0.3-0.2-0.6-0.4-0.7c-5.1-3.5-10.4-6.7-16-9.3c-10-4.7-20.5-7.9-31.4-9.6
	c-10.6-1.6-21.3-1.7-31.9-0.3c0-0.2,0-0.4-0.1-0.6c-4-8.5-12.5-13.6-21.1-16.5c-14-4.5-29-5-43.2-1.4c-14.3,3.4-27.3,10.6-37.7,21
	c-0.5,0.4-0.5,1.1-0.1,1.5c0.1,0.1,0.3,0.2,0.4,0.3c8.8,3.6,17.5,7.4,26.3,10.9c7.1,3,14.5,5.4,22,7.2c7.4,1.6,15,2.1,22.5,1.5
	c7.4-0.6,15.1-2.1,21.5-6.1c5.5-3.5,9.9-9.1,10.8-15.7c5.4-0.7,10.9-1,16.4-0.8c10.8,0.3,21.4,2.1,31.7,5.5
	c9.7,3.2,19,7.7,27.5,13.4c-14.1,0.8-28.1,2.4-42,4.8c-0.3,0-0.5,0.1-0.8,0.3c-9.4,0.4-18.9,1.5-28.1,3.2
	c-18.7,3.6-36.8,9.9-53.6,18.7c-16.2,8.4-31.1,19.1-44.3,31.8c0.1,0.1,0.3,0.1,0.4,0.2c1.2,0.6,0.5,2.6-0.7,2
	c-0.4-0.2-0.9-0.4-1.3-0.6c0.5-0.5,1.1-1.1,1.6-1.6c-6.1-2.7-12.7-4.1-19.4-4.2c-11.2,0.2-21.9,4.3-30.3,11.6
	c-9.6,8.2-16.1,19.5-19.8,31.5c-0.2,0.6,0.1,1.2,0.7,1.4C0.5,407.2,0.6,407.2,0.7,407.2z"/>
</svg>
