<?xml version="1.0" encoding="utf-8"?>
<!-- Generator: Adobe Adobe Illustrator 24.2.0, SVG Export Plug-In . SVG Version: 6.00 Build 0)  -->
<svg version="1.1" id="Layer_1" xmlns="http://www.w3.org/2000/svg" xmlns:xlink="http://www.w3.org/1999/xlink" x="0px" y="0px"
	 viewBox="0 0 465 670.8" style="enable-background:new 0 0 465 670.8;" xml:space="preserve">
<style type="text/css">
	.st0{fill:#F7EFDE;}
</style>
<path class="st0" d="M463.8,1.1c0.9,7.3,1.3,14.7,1.2,22.1c-0.3,12.5-3.7,25.5-12.9,34.6c-4.5,4.4-10.3,7.4-16.5,8.6
	c-6,1.2-12.6,2.1-18.5,0c0,0-0.1,0-0.1-0.1c-7.4,6.1-14.4,12.8-20.8,20c-12.5,14.1-22.9,29.9-30.9,47c-7.1,15.2-12.2,31.3-15.1,47.9
	c1.7-2.5,3.5-4.9,5.5-7.2c9.2-10.9,20.6-19.8,33.6-25.9c0-0.1,0-0.1,0.1-0.2c-0.1-0.1-0.1-0.3-0.2-0.4c-0.5-2.8-0.1-5.8,1.1-8.4
	c1.2-2.9,2.8-5.6,4.6-8.2c6.8-9.5,16.7-16.3,27.6-20.3c10.3-3.7,21.3-4.9,32.2-4.5c0.6,0,1.1,0.5,1,1.1c0,0.1,0,0.2,0,0.2
	c-2.4,6.5-5.6,12.7-9.4,18.5c-3.4,5.2-7.3,10-11.7,14.4c-2.2,2.2-4.6,4.1-7.3,5.8c-2.6,1.6-5.4,2.8-8.4,3.7
	c-2.9,0.9-5.8,1.6-8.8,2.3c-2.4,0.5-4.9,0.9-7.4,1.1c-4.4,0.3-9-0.4-12.4-3.4c-16.2,7.5-30,19.5-39.8,34.4c0,0.3,0,0.5-0.1,0.8
	c-9.6,33.5-15.1,68.1-16.1,103c3.3-1.6,6.6-3.4,9.7-5.2c13-7.8,24.6-17.9,34-29.8c-0.5,0.1-1-0.1-1.1-0.5c-3.2-6.6-4.6-14-4.1-21.4
	c0.8-13.8,7.2-26.7,16.3-36.9c11.8-13.3,27.5-22.4,42.7-31.3c0.5-0.3,1.2-0.1,1.5,0.4c13.8,23.1,10.9,52.5-7,72.6
	c-11.9,12.9-28.7,20.3-46.3,20.2c-0.5,0-0.9-0.4-1-0.9c-2.1,2.6-4.3,5.1-6.6,7.5c-10.9,11.5-23.9,20.9-38.2,27.6
	c0,0.6,0,1.2-0.1,1.7c-1.6,65,9.9,130.3,30.1,192c3.6,11.1,7.7,22,12.1,32.8c-0.1-3.9,0-7.8,0.3-11.7c0.7-9.1,2.4-18.1,4.9-26.9
	c2.3-8,5.2-15.8,8.2-23.6c-0.8-0.6-3.3-2.4-4-3.1c-7.2-6.2-11.9-14.9-14-24c-2.2-9.5-1.8-19.5,1.2-28.8c3.3-9.9,8.5-19,15.5-26.7
	c7.4-8.4,16.2-15.4,25.7-21.4c10.1-6.5,20.9-11.8,31.7-17.2c0.8-0.4,1.9,0.4,1.5,1.3c-0.5,1.1-0.9,2.3-1.2,3.5
	c-2.8,9.9-0.7,20.3,1.4,30.1c2.1,9.9,4.2,19.9,2.9,30.1c-1.2,9.7-4.7,19-10,27.2c-5.3,8.2-12.2,15.3-20.4,20.7
	c-8.1,5.4-17.5,8.8-27.2,9.8c-0.4,0.1-0.8-0.1-1.1-0.4c-1.4,3.8-2.8,7.5-4.2,11.4c-3.2,8.7-5.6,17.7-7.3,26.8
	c-1.5,8.8-2,17.7-1.5,26.5c0,0.3-0.1,0.7-0.4,0.8c7.6,17.8,16.6,34.9,27,51.1l2.2,3.4c1.3,2,2.7,4,4.1,6
	c19.1,27.3,41.5,53.7,49.3,86.8c0.2,0.9-0.4,1.8-1.4,2c-0.9,0.2-1.8-0.4-2-1.2c-8.6-36.3-34.7-64.1-54.8-94.5
	c-18.5-11-38-20.6-58-28.5c-21.4-8.4-43.4-15-65.9-19.6c-6.9,0.3-13.8,0.9-20.7,1.9c-14.5,2.1-28.7,6.1-41.4,13.4
	c-2.9,1.7-5.8,3.6-8.5,5.6c-0.3,0.3-0.5,0.7-0.7,1c-0.7,0.9-1.3,1.9-1.9,2.9c-1.2,1.9-2.4,3.8-3.5,5.8c-2.3,4-4.8,7.9-7.5,11.6
	c-8.6,10.9-21.3,17.8-35.1,19c-3.4,0.3-6.8,0.2-10.2-0.2c-3.3-0.4-6.5-1.2-9.7-1.9c-6.3-1.4-12.9-2.8-19.2-0.8
	c-0.6,0.1-1.2-0.2-1.3-0.8c0-0.2,0-0.4,0-0.5c1.1-3.6,4.2-6,7-8.3c2.9-2.4,5.8-4.6,8.9-6.7c11-7.6,23.1-13.5,35.9-17.6
	c6.4-2,12.9-3.5,19.5-4.5c6.9-1.1,13.9-1.6,20.6-3.6c0.1,0,0.2,0,0.3,0c9.9-6.4,20.9-11,32.3-13.7c8.9-2.1,18-3.5,27.1-4.1
	c-13.9-2.6-28-4.4-42.1-5.5c-20.6-1.6-41.8-2.3-62.3,1.1c-19.2,3.1-36.8,12.8-56.1,14.8c-0.5,0.1-1,0.1-1.5,0.1
	c-3.9-0.3-7.2,0.8-10.9,1.8c-3.3,1-6.5,2.1-9.7,3.4c-3.6,1.4-7.3,2.9-10.8,4.4c-2.1,0.9-4.2,1.8-6.2,2.7c-2.1,2.2-4.2,4.3-6.3,6.5
	c-2.3,2.3-4.5,4.7-6.9,6.9c-3.2,3-7.1,5.1-11.4,6c-3.7,0.7-7.5,0.9-11.2,0.6c-7.4-0.3-15.4-1.4-22.4,2c-0.5,0.3-1.2,0-1.5-0.5
	c-0.1-0.2-0.1-0.5-0.1-0.8c1.7-4.6,4.8-8.5,8.9-11.2c3.8-2.4,7.9-4.3,12.2-5.5c4.5-1.4,9-2.6,13.6-3.7c9.1-2.1,18.3-3.5,27.5-4.4
	c0.2,0,0.5,0,0.7,0.2c4.9-2.1,9.8-4.1,14.8-6c4.9-1.9,10-3.7,15.3-4.2c-3.1-0.7-6.1-1.5-9.2-2.3c-8-2.4-15.7-5.5-23.1-9.4
	c-0.5,0.1-0.9-0.1-1.2-0.5c0-0.1-0.1-0.1-0.1-0.2c0,0.5-0.5,1-1,0.9c-0.1,0-0.2,0-0.3-0.1c-8.2-2.8-16.9-3.1-25.2-5.4
	C19,509.8,1.2,487,0,460.7c0-0.6,0.5-1.1,1.1-1c0.2,0,0.3,0.1,0.5,0.1c7.1,3.4,14.1,6.8,21.1,10.2c6.2,3,12.5,6,18.7,9
	c5.8,2.9,11.6,6.1,16.2,10.7c2.2,2.2,4.1,4.7,5.6,7.5c1.3,2.5,2.3,5.2,3.1,7.9c1.6,5.1,3,10.4,5.9,15c11.2,5.9,23.1,10,35.5,12.4
	c0.3,0,0.7-0.1,1-0.1c11.8-1,22.9-5.4,34.1-9.1c11-3.7,22.3-6.1,33.8-7.2c1.8-0.2,3.6-0.3,5.4-0.4c-3.1-1.4-6.2-3-9.2-4.7
	c-7.6-4.3-14.7-9.3-21.3-15.1c-0.4,0.4-1,0.4-1.5,0c-0.2,0.2-0.4,0.2-0.7,0.2c-42.2-2.4-74.5-38.6-72.1-80.8
	c0.1-2.4,0.4-4.8,0.8-7.2c0-0.6,0.6-1.1,1.2-1c0.3,0,0.5,0.1,0.7,0.3c7.3,6.3,15,12,23.1,17.2c7.2,4.6,14.7,8.5,22,12.9
	c6.9,4.2,13.7,9,18.9,15.2c4.9,5.8,8,13,8.9,20.5c0.8,6.8,0.2,13.6-0.6,20.4c10.2,9.1,21.9,16.4,34.5,21.8c17.3-0.9,34.8,0.1,52,1.9
	c19.6,2,39,5.5,58.1,10.3c12.4,3.1,24.7,6.9,36.7,11.2c-1.9-1.1-3.7-2.2-5.5-3.4c-13.5-8.7-25.7-19.4-36.1-31.7
	c-1.2-1.4-2.3-2.8-3.4-4.2c-0.2,0.4-0.7,0.6-1.2,0.4c-23.5-6.6-41.8-25-48.2-48.6c-3.7-13.8-3-28.5,1.9-41.9
	c0.2-0.6,0.8-0.9,1.4-0.7c0.2,0.1,0.3,0.1,0.4,0.3l20.6,18.5c6.1,5.5,12.1,10.9,18.2,16.4c2.9,2.6,5.9,5.3,8.8,7.9
	c2.8,2.4,5.2,5.2,7.2,8.3c3.5,5.8,3.3,12.7,1.7,19.1c-1.8,6.7-5.1,13-9.5,18.3c6.7,8.5,14.2,16.4,22.5,23.4
	c12.1,10.3,25.7,18.7,40.4,24.9c0.2,0.1,0.4,0.2,0.5,0.4c15.7,6.5,31,14,45.8,22.5c-19-30.5-32.2-64.3-42.5-98.7
	c-1.9-6.2-3.6-12.5-5.3-18.8c-4.5-4.7-8.9-9.4-13.2-14.3c-8.2-9.4-15.8-19.2-22.9-29.5c-6-8.6-11.5-17.5-16.7-26.7
	c-1,0.3-3.7,1.3-4.7,1.5c-7.6,1.4-15.4,0.3-22.4-2.9c-7.2-3.3-13.4-8.2-18.3-14.4c-5.2-6.6-8.7-14.3-10.3-22.5
	c-1.7-9.1-1.8-18.4-0.3-27.6c1.5-9.2,4-18.3,7.5-27c0.3-0.7,1.3-1.1,1.8-0.4c6,7.8,13.7,14,21.4,20c12.6,9.8,26.6,20.1,32.5,35.6
	c4.5,11.7,3.6,26.7-6,35.6c2.7,4.8,5.5,9.5,8.4,14.2c6.5,10.5,13.7,20.6,21.3,30.3c6.5,8.3,13.4,16.2,20.7,23.9
	c-6.3-23.9-11.1-48.2-14.4-72.6c-2.4-18-3.9-36.1-4.5-54.2c-0.1,0-0.2-0.1-0.3-0.1c-3.8-2.5-7.1-5.6-10-9.2
	c-5.3-6.3-10.2-12.9-14.8-19.7c-4-6-8-12.1-10.5-18.9l0,0c-5.9,4.1-13.9,3.6-20.1,0.5c-7-3.5-11.8-10.5-15-17.5
	c-2.8-6.2-4.7-12.7-5.7-19.4c-1.9-13.5-0.6-27.2,3.8-40.1c0.2-0.6,0.8-0.9,1.4-0.7c0.2,0.1,0.3,0.1,0.4,0.3
	c5.8,5.9,12.6,10.6,19,15.7c5.8,4.6,11.1,9.7,15.9,15.3c4.2,4.9,8.2,10.2,10.6,16.3c2.1,5.4,2.9,11.3,1.1,16.9c-1.5,5-5,9-9.7,11.1
	c1.4,3.7,3.1,7.3,5.1,10.6c4.1,6.9,8.6,13.5,13.4,19.8c2.4,3.2,4.9,6.3,7.5,9.3c2.2,2.7,4.8,5.2,7.7,7.2
	c-0.9-29.9,1.2-59.8,6.1-89.3c-0.3-0.1-0.5-0.3-0.7-0.5c-2.9-5.5-5.4-11.1-7.4-17c-3.5-10.4-5.5-21.3-5.9-32.3
	c-0.4-10.7,0.8-21.4,3.5-31.7c-0.2,0-0.4,0-0.6-0.2c-7.9-5-12-14-13.9-22.9c-2.9-14.4-1.6-29.3,3.6-43.1c5-13.8,13.8-25.9,25.2-35
	c0.4-0.4,1.1-0.4,1.5,0.1c0.1,0.1,0.2,0.3,0.2,0.5c2.6,9.1,5.3,18.2,7.8,27.4c2.2,7.4,3.7,15,4.5,22.7c0.7,7.5,0.3,15.1-1.1,22.6
	c-1.4,7.3-3.8,14.8-8.6,20.7c-4.1,5.1-10.2,8.8-16.9,8.9c-1.3,5.3-2.2,10.7-2.8,16.1c-1,10.7-0.4,21.6,1.7,32.1
	c2,10,5.4,19.7,10.1,28.8c2.5-13.9,5.7-27.6,9.6-41.1c0.1-0.3,0.2-0.5,0.4-0.7c1.5-9.3,3.7-18.6,6.5-27.6
	c5.8-18.1,14.1-35.3,24.9-51.1c10.3-15.1,22.6-28.7,36.7-40.3c0.1,0.1,0.1,0.3,0.1,0.4c0.5,1.3,2.5,0.8,2.1-0.5
	c-0.2-0.4-0.3-0.9-0.4-1.4c-0.6,0.5-1.2,1-1.8,1.4c-1.9-6.4-2.6-13.1-1.9-19.8c1.5-11,6.8-21.2,15.1-28.8c9.2-8.6,21.3-13.7,33.6-16
	c0.6-0.1,1.2,0.3,1.3,0.9C463.8,0.9,463.8,1,463.8,1.1z"/>
</svg>
